<svg xmlns="http://www.w3.org/2000/svg" viewBox="0 0 500 500"><g id="freepik--background-simple--inject-119"><path d="M353.81,392.92c22.75-8.54,44.82-29.84,58.86-49.68,38.23-54,48.42-96,44.71-149.49-2.19-31.72-14.93-62.84-38.15-84.56C399.59,90.82,369.88,85,343.92,92s-47.9,26-61.15,49.38c-10.87,19.2-17.69,42.86-36.9,53.7-16,9-36,6.2-53.3.34s-34-14.53-52.17-16.77c-40.18-5-79.88,25.6-91.05,64.51s3.33,82.45,31.29,111.74c16.6,17.39,37.32,30.15,59.81,38.83a196.55,196.55,0,0,0,66.9,12.82c36,.72,113.33.44,146.46-13.63" style="fill:#ebebeb"></path></g><g id="freepik--Floor--inject-119"><path d="M476.43,459.82c0,.15-101.38.27-226.42.27S23.57,460,23.57,459.82s101.36-.26,226.44-.26S476.43,459.68,476.43,459.82Z" style="fill:#263238"></path></g><g id="freepik--Character--inject-119"><path d="M227.19,240.35a55.25,55.25,0,0,1-3.57-10.24,18.48,18.48,0,0,1,.63-10.7,11.2,11.2,0,0,1,7.83-6.89c2.19-.43,4.54-.07,6.64-.84,2.43-.9,4.05-3.13,5.94-4.9a18.92,18.92,0,0,1,10.85-4.94,11.22,11.22,0,0,1,6.22.9,6.31,6.31,0,0,1,3.57,4.93,30,30,0,0,1,7.6-1.83,10.07,10.07,0,0,1,7.32,2.17,6.14,6.14,0,0,1,1.69,7.08,5,5,0,0,1,6.44,1.82,6.45,6.45,0,0,1-.41,7,12,12,0,0,1-7.19,4.13c-2.44.34-5.28.57-7.61-.21" style="fill:#263238"></path><path d="M233.16,310.8l35-2.8c.22-4.09-.07-19.9-.07-19.9s14.56-2.27,14.74-16.83-2.34-48-2.34-48h0a50.61,50.61,0,0,0-50.86,6.39l-2.16,1.66Z" style="fill:#b78876"></path><path d="M268.12,287.89a33.86,33.86,0,0,1-19-5.4s4.49,10.48,19,9.17Z" style="fill:#aa6550"></path><path d="M229.27,246.41c-.24-.11-10-3-9.68,7s10.24,7.59,10.25,7.3S229.27,246.41,229.27,246.41Z" style="fill:#b78876"></path><path d="M226.68,257s-.17.12-.46.27a1.72,1.72,0,0,1-1.29.06c-1.07-.35-2-2-2.11-3.78a5.75,5.75,0,0,1,.4-2.5,2,2,0,0,1,1.27-1.37.89.89,0,0,1,1,.44c.14.27.08.47.13.49s.21-.18.12-.58a1.14,1.14,0,0,0-.41-.62,1.36,1.36,0,0,0-1-.22,2.45,2.45,0,0,0-1.76,1.6,5.8,5.8,0,0,0-.51,2.8c.12,2,1.21,3.85,2.66,4.22a1.84,1.84,0,0,0,1.58-.32C226.67,257.27,226.72,257,226.68,257Z" style="fill:#aa6550"></path><path d="M275.72,245.84a2.08,2.08,0,0,1-2,2.09,2,2,0,0,1-2.15-1.87,2.08,2.08,0,0,1,2-2.1A2,2,0,0,1,275.72,245.84Z" style="fill:#263238"></path><path d="M277.74,243.75c-.26.28-1.83-.89-4.07-.88s-3.88,1.12-4.12.85.14-.61.86-1.14a5.72,5.72,0,0,1,3.3-1,5.56,5.56,0,0,1,3.24,1C277.63,243.14,277.87,243.63,277.74,243.75Z" style="fill:#263238"></path><path d="M253.72,245.84a2.08,2.08,0,0,1-2,2.09,2,2,0,0,1-2.15-1.87,2.08,2.08,0,0,1,2-2.1A2,2,0,0,1,253.72,245.84Z" style="fill:#263238"></path><path d="M255.74,244.17c-.26.27-1.83-.89-4.07-.89s-3.88,1.13-4.12.85c-.12-.12.14-.61.86-1.13a5.65,5.65,0,0,1,3.3-1,5.49,5.49,0,0,1,3.24,1C255.63,243.56,255.87,244.05,255.74,244.17Z" style="fill:#263238"></path><path d="M263.86,260.77a14.62,14.62,0,0,1,3.64-.66c.57-.06,1.11-.17,1.21-.56a3,3,0,0,0-.38-1.69l-1.69-4.36c-2.35-6.19-4.05-11.29-3.8-11.38s2.36,4.86,4.7,11q.85,2.29,1.62,4.38a3.29,3.29,0,0,1,.3,2.24,1.44,1.44,0,0,1-.94.84,3.66,3.66,0,0,1-1,.13A14.18,14.18,0,0,1,263.86,260.77Z" style="fill:#263238"></path><path d="M257.28,262.32c.36,0,.37,2.4,2.45,4.13s4.66,1.46,4.68,1.8c0,.15-.58.47-1.67.5a6.07,6.07,0,0,1-3.91-1.37,5.27,5.27,0,0,1-1.9-3.46C256.84,262.9,257.11,262.3,257.28,262.32Z" style="fill:#263238"></path><path d="M276.92,239.82c-.4.5-1.94,0-3.79,0s-3.43.34-3.79-.19c-.16-.26.09-.77.78-1.25a5.49,5.49,0,0,1,6.1.19C276.88,239,277.09,239.57,276.92,239.82Z" style="fill:#263238"></path><path d="M252.83,236.08c-.25.28-.82.16-1.57,0a13.85,13.85,0,0,0-5.54-.18c-.76.09-1.34.17-1.57-.12s0-.91.78-1.55a5.89,5.89,0,0,1,7.23.24C252.89,235.18,253.07,235.83,252.83,236.08Z" style="fill:#263238"></path><path d="M281.22,227.74A34.17,34.17,0,0,1,260,226.66c-7.55-2.86-16.1-3.76-17.8-2.13s-1.34,9.07-8.24,11.95c0,0,1.92,14.07-3.76,14.13s-4.37-22.16-4.37-22.16l13.09-8.12L253.64,216l14.08-1.42,13.5,2.7Z" style="fill:#263238"></path><path d="M318.83,344.27s25.36,26.11,34.3,22.23C377.44,356,397.2,333.76,404,325.79c.29-1.5.58-3.26.83-5.36a16,16,0,0,0-.3-5.43,24.72,24.72,0,0,0-2.14-6.46c-1.11-1.79.49-3.94,2.24-3.21s6,5.46,6.89,12.12a2.73,2.73,0,0,0,3.78,1.73c4.4-1.45,19.35-7.25,22-7.87,2.37-.55,5.2-.41,3.62,1.32s-12.6,8.18-12.6,8.18,14.28-8.74,15.46-6.6c.81,1.48-2.2,4.88-12.22,9.72,0,0,11.82-7.11,13.84-6.88,4.54.53-9.6,9.23-9.6,9.23,10-6,9.49-6.41,10.57-5.24.81.87-.94,2.86-5.85,6.86-4,3.25-7.46,7.41-13.26,12.68h0s-60,83.45-97.75,57.84c-20.35-13.81-25.94-20.77-37.49-31.23" style="fill:#b78876"></path><path d="M429.88,330c.15.25,3.28-1.46,7-3.83s6.6-4.49,6.43-4.73-3.3,1.48-7,3.84S429.74,329.78,429.88,330Z" style="fill:#aa6550"></path><path d="M427.17,326.45c.14.25,3.59-1.39,7.69-3.67s7.31-4.33,7.17-4.59-3.58,1.39-7.69,3.67S427,326.19,427.17,326.45Z" style="fill:#aa6550"></path><path d="M424.38,322.71c.14.26,3.42-1.24,7.33-3.34s7-4,6.83-4.28-3.42,1.24-7.33,3.34S424.24,322.45,424.38,322.71Z" style="fill:#aa6550"></path><path d="M168.69,365s-12.78,34.08-22.52,34.11c-26.5.08-53.49-12.35-62.91-16.93-.86-1.26-1.84-2.76-2.91-4.58a16.22,16.22,0,0,1-1.9-5.09,25.28,25.28,0,0,1-.62-6.78c.3-2.08-2-3.42-3.34-2s-3.32,7.41-1.46,13.87a2.73,2.73,0,0,1-2.77,3.1c-4.61.43-20.63,1.1-23.32,1.6-2.39.45-4.93,1.71-2.79,2.66,1.56.69,8.68,1.67,12.46,2.15-4.59-.52-14.28-1.41-14.44.44-.1,1.09,1.6,2.27,5.79,3.08-2.86-.19-5.44-.23-6.13.18-4,2.3,12.49,4.6,12.49,4.6-11.54-1.51-11.27-2.06-11.79-.56-.39,1.12,2,2.25,8.11,4,5,1.38,9.8,3.79,17.23,6.3,0,0,88.42,52.42,112.73,13.84,13.11-20.8,15.45-29.42,21.84-43.64Z" style="fill:#b78876"></path><path d="M61.24,396.41c0,.29-3.59,0-8-.71s-7.84-1.46-7.78-1.75,3.62,0,8,.71S61.27,396.12,61.24,396.41Z" style="fill:#aa6550"></path><path d="M62.29,392c0,.29-3.84.17-8.51-.27s-8.44-1-8.41-1.34,3.83-.16,8.51.28S62.31,391.75,62.29,392Z" style="fill:#aa6550"></path><path d="M63.35,387.5c0,.29-3.63.24-8.06-.13s-8-.89-8-1.18,3.63-.23,8.06.13S63.37,387.21,63.35,387.5Z" style="fill:#aa6550"></path><path d="M348.75,366.58,306.92,319.9c-11.65-11.45-17.87-14.87-34.08-16.79-2.65-.31-4.76-.51-6.27-.7a61.92,61.92,0,0,1-37.33,0h0c-5.77.24-10.55,2-15.45,3-15.46,3-26.58,14.22-29.67,24.61h0l-34.87,68.11,29.45,24.75,26.9-42.7,1.64,45.45-1.67,34,103.25.3-4.69-79.73,27.79,22.62Z" style="fill:#60A5FA"></path><path d="M206.07,351.57a6.42,6.42,0,0,1,.13,1.52c0,1,.07,2.38.1,4.13,0,3.48.07,8.3,0,13.62s-.09,10.14-.17,13.62c0,1.75-.09,3.16-.13,4.13a6.11,6.11,0,0,1-.15,1.51,6,6,0,0,1-.14-1.51c0-1-.07-2.39-.1-4.13-.05-3.49-.07-8.3,0-13.63s.09-10.13.17-13.62c0-1.74.09-3.15.14-4.13A5.64,5.64,0,0,1,206.07,351.57Z" style="fill:#263238"></path><path d="M305.88,410a15.4,15.4,0,0,1-.3-2.34c-.15-1.64-.34-3.8-.58-6.4-.45-5.41-1-12.89-1.6-21.15S302.32,364.41,302,359c-.13-2.61-.25-4.78-.33-6.42a14.2,14.2,0,0,1,0-2.36,14.45,14.45,0,0,1,.31,2.34c.15,1.64.34,3.8.57,6.4.45,5.41,1,12.89,1.61,21.15s1.07,15.74,1.39,21.16c.14,2.61.25,4.78.34,6.42A14.77,14.77,0,0,1,305.88,410Z" style="fill:#263238"></path><g style="opacity:0.30000000000000004"><path d="M321.19,335.61c0,.14-31.33.26-70,.26s-70-.12-70-.26,31.33-.26,70-.26S321.19,335.46,321.19,335.61Z" style="fill:#ebebeb"></path></g><g style="opacity:0.30000000000000004"><path d="M332,377.09c0,.15-38.18.26-85.26.26s-85.27-.11-85.27-.26,38.17-.26,85.27-.26S332,377,332,377.09Z" style="fill:#ebebeb"></path></g><g style="opacity:0.30000000000000004"><path d="M306.72,424.39c0,.15-22.17.26-49.52.26s-49.52-.11-49.52-.26,22.17-.26,49.52-.26S306.72,424.25,306.72,424.39Z" style="fill:#ebebeb"></path></g><g style="opacity:0.30000000000000004"><path d="M218.76,459.82c-.14,0-.26-34.84-.26-77.8s.12-77.82.26-77.82S219,339,219,382,218.91,459.82,218.76,459.82Z" style="fill:#ebebeb"></path></g><g style="opacity:0.30000000000000004"><path d="M278.6,459.83s0-.14,0-.4,0-.69,0-1.19c0-1.06,0-2.59-.05-4.54,0-4-.08-9.69-.13-16.72-.13-14.15-.31-33.64-.5-55.17s-.33-41.06-.34-55.18c0-7,0-12.74,0-16.72,0-2,0-3.48.05-4.54,0-.5,0-.9,0-1.19a2.12,2.12,0,0,1,0-.4s0,.14,0,.4,0,.69,0,1.19c0,1.06,0,2.59.05,4.54,0,4,.08,9.68.13,16.72.13,14.14.31,33.64.5,55.18s.33,41,.34,55.16c0,7,0,12.75,0,16.73,0,1.95,0,3.48,0,4.54,0,.5,0,.89,0,1.19A2.12,2.12,0,0,1,278.6,459.83Z" style="fill:#ebebeb"></path></g><g style="opacity:0.30000000000000004"><path d="M320.93,393.32c-.14,0-.26-12.6-.26-28.14s.12-28.14.26-28.14.26,12.59.26,28.14S321.08,393.32,320.93,393.32Z" style="fill:#ebebeb"></path></g><g style="opacity:0.30000000000000004"><path d="M171.92,404.85c-.15,0-.26-11.88-.26-26.54s.11-26.55.26-26.55.26,11.88.26,26.55S172.06,404.85,171.92,404.85Z" style="fill:#ebebeb"></path></g><polyline points="225.38 303.78 231.08 291.8 249.75 304.96 268.17 292.58 274.65 303.1 256.19 315.1 243.85 315.1 225.38 305.17" style="fill:#60A5FA"></polyline><path d="M249.75,305a1.39,1.39,0,0,1-.35.1,3.72,3.72,0,0,0-1,.27,5.87,5.87,0,0,0-2.78,2.35,29.83,29.83,0,0,0-2.57,5c-.44,1-.88,2-1.44,3.07a11.48,11.48,0,0,1-2.15,3l-.18.17-.18-.19-1.06-1.1c-3.7-3.88-6.85-7.57-9-10.31-1.1-1.37-2-2.49-2.54-3.28a7.63,7.63,0,0,1-.86-1.26,7.69,7.69,0,0,1,1,1.13l2.66,3.18c2.26,2.67,5.45,6.32,9.13,10.18l1.06,1.1h-.36a10.66,10.66,0,0,0,2.06-2.87c.55-1,1-2.05,1.45-3a28.48,28.48,0,0,1,2.71-5,5.88,5.88,0,0,1,3-2.33,3.35,3.35,0,0,1,1-.18C249.62,304.94,249.75,304.94,249.75,305Z" style="fill:#263238"></path><path d="M274.32,303.33a7,7,0,0,1-.91,1.2c-.63.75-1.55,1.81-2.75,3.06a74.31,74.31,0,0,1-10.29,8.84c-.81.57-1.62,1.12-2.4,1.63l-.36.23,0-.44a23.5,23.5,0,0,0-1.52-6.14,15.74,15.74,0,0,0-2.47-4.42,6.13,6.13,0,0,0-2.65-2c-.74-.25-1.19-.28-1.18-.33s.11,0,.32,0a3.56,3.56,0,0,1,.92.15,6.12,6.12,0,0,1,2.85,1.95,15.55,15.55,0,0,1,2.64,4.48,23.72,23.72,0,0,1,1.61,6.29l-.4-.2c.77-.52,1.57-1.06,2.38-1.63a83.05,83.05,0,0,0,10.32-8.67c1.24-1.21,2.2-2.23,2.87-2.93A8.82,8.82,0,0,1,274.32,303.33Z" style="fill:#263238"></path><path d="M256.85,459.83s0-.14,0-.4,0-.67,0-1.17c0-1.05,0-2.56-.06-4.49,0-3.93-.11-9.57-.2-16.53-.2-13.95-.65-33.22-1.62-54.49s-2.31-40.5-3.38-54.41c-.56-6.94-1-12.56-1.32-16.48-.15-1.92-.27-3.42-.36-4.47,0-.5-.06-.88-.07-1.17a1.74,1.74,0,0,1,0-.4s0,.13.06.39.07.68.13,1.17c.11,1.05.26,2.55.45,4.47.39,3.88.9,9.5,1.49,16.46,1.17,13.9,2.55,33.14,3.53,54.42s1.36,40.55,1.47,54.51c.06,7,.06,12.63,0,16.53,0,1.93,0,3.44,0,4.49,0,.5,0,.88,0,1.17A2.12,2.12,0,0,1,256.85,459.83Z" style="fill:#263238"></path><g style="opacity:0.2"><path d="M249.31,305c2.27,1.29,3.11,4.16,3.12,6.76s-.61,5.2-.39,7.8a4.43,4.43,0,0,0,1.74,3.53c1.58,1,3.59.06,5.21-.83,3.48-1.91,7-3.86,9.85-6.64a14.22,14.22,0,0,0,4-10.65c-4.8,5.15-9.64,8.26-14.89,12.32a21.74,21.74,0,0,0-2.64-7.79c-1.36-2.36-3.29-4.8-6-4.5"></path></g><g style="opacity:0.2"><path d="M232.16,310.92c1.77,3.47,3.63,7,6.68,9.47,1.35,1.07,3.33,1.88,4.74.88,1.13-.81,1.32-2.38,1.41-3.77.24-3.52,1.28-7.57,1.52-11.1-2.79,3.15-4.32,8.7-7.26,12.51-3-1.89-4.73-5.12-6.89-7.93"></path></g><g style="opacity:0.2"><path d="M323,395l13.93-25.91c-4.12.41-6.89,4.3-9,7.86s-4.7,7.51-8.79,8.22c-2.84.49-5.68-.78-8.16-2.26s-4.88-3.23-7.7-3.85Z"></path></g><g style="opacity:0.2"><path d="M200.63,388s-9.7,10.21-16.24,11.71a23.79,23.79,0,0,1-19.12-4,3.58,3.58,0,0,0-1.45-.77,1.09,1.09,0,0,0-1.27.78,1.58,1.58,0,0,0,.68,1.23q10,9.31,20.84,17.72Z"></path></g><g style="opacity:0.2"><path d="M246.31,318.4q-5.52,44.09-7.21,88.54c-.17,4.63-.29,9.4,1.36,13.73,1.92,5,6,8.9,10,12.56,1.69,1.56,4,3.24,6.06,2.27a5.65,5.65,0,0,0,1.95-1.82c2.5-3.22,4.84-6.7,5.77-10.68,2.9-12.46-8.86-24.79-6.21-37.31"></path></g><path d="M245.36,308.17l8.83-.23,2.36,4.75-2.83,7.94h-7.21l-3.82-7.11Z" style="fill:#455a64"></path><polygon points="246.51 320.63 242.38 421.69 254.38 434.74 265.47 418.98 253.72 320.63 246.51 320.63" style="fill:#455a64"></polygon><path d="M253.3,320.77a17.33,17.33,0,0,1-3.34,0,17.17,17.17,0,0,1-3.33-.11,12.19,12.19,0,0,1,6.67.11Z" style="fill:#263238"></path><path d="M255.2,309.65a6,6,0,0,1-1.12,1.53,24.69,24.69,0,0,1-3.32,3.14,25.09,25.09,0,0,1-3.81,2.5,5.67,5.67,0,0,1-1.75.74c-.07-.14,2.49-1.46,5.24-3.65S255.08,309.54,255.2,309.65Z" style="fill:#263238"></path><path d="M254.81,330.5a39.11,39.11,0,0,1-4.31,4.64,38.23,38.23,0,0,1-4.69,4.27,38.73,38.73,0,0,1,4.32-4.64A37.76,37.76,0,0,1,254.81,330.5Z" style="fill:#263238"></path><path d="M255.42,337.78a47.44,47.44,0,0,1-4.83,5.14,47,47,0,0,1-5.19,4.78,48,48,0,0,1,4.83-5.15A47.46,47.46,0,0,1,255.42,337.78Z" style="fill:#ebebeb"></path><path d="M256.56,344.5a64.3,64.3,0,0,1-5.62,5.94,65.38,65.38,0,0,1-6,5.58,63.61,63.61,0,0,1,5.62-5.95A62.7,62.7,0,0,1,256.56,344.5Z" style="fill:#263238"></path><path d="M257.35,351.58a79.14,79.14,0,0,1-6.13,6.46,78,78,0,0,1-6.49,6.08,75,75,0,0,1,6.12-6.45A76.34,76.34,0,0,1,257.35,351.58Z" style="fill:#ebebeb"></path><path d="M258.1,358.71a90.79,90.79,0,0,1-6.62,6.94,86.65,86.65,0,0,1-7,6.58,89.74,89.74,0,0,1,6.62-7A85.34,85.34,0,0,1,258.1,358.71Z" style="fill:#263238"></path><path d="M259,365.68c.11.1-3.16,3.51-7.28,7.62s-7.56,7.35-7.66,7.25a103.16,103.16,0,0,1,7.29-7.62C255.47,368.82,258.89,365.58,259,365.68Z" style="fill:#ebebeb"></path><path d="M259.75,372.8c.1.1-3.41,3.75-7.83,8.16s-8.09,7.88-8.19,7.78,3.4-3.75,7.82-8.15S259.64,372.7,259.75,372.8Z" style="fill:#263238"></path><path d="M260.63,379.8c.1.1-3.65,4-8.37,8.69s-8.63,8.42-8.73,8.32,3.64-4,8.37-8.69S260.52,379.7,260.63,379.8Z" style="fill:#ebebeb"></path><path d="M261.18,387.12c.1.1-3.88,4.23-8.89,9.21s-9.15,8.95-9.26,8.85,3.88-4.23,8.89-9.21S261.08,387,261.18,387.12Z" style="fill:#263238"></path><path d="M262.15,394c.1.1-4.1,4.45-9.38,9.71s-9.66,9.45-9.76,9.35,4.1-4.45,9.39-9.72S262.05,393.92,262.15,394Z" style="fill:#ebebeb"></path><path d="M263.68,400.36c.1.11-4.6,4.95-10.49,10.82s-10.76,10.56-10.86,10.46,4.59-4.95,10.49-10.83S263.58,400.26,263.68,400.36Z" style="fill:#263238"></path><path d="M246.14,425.78c-.1-.1,3.87-4.26,8.88-9.29s9.14-9,9.25-8.92-3.88,4.26-8.88,9.29S246.24,425.88,246.14,425.78Z" style="fill:#ebebeb"></path><path d="M250.73,430.38c-.1-.1,3-3.54,7-7.69a101.27,101.27,0,0,1,7.34-7.33,103.26,103.26,0,0,1-7,7.69A101.27,101.27,0,0,1,250.73,430.38Z" style="fill:#263238"></path><path d="M253.92,323.73a31,31,0,0,1-3.82,4.15,30.49,30.49,0,0,1-4.19,3.79,31.45,31.45,0,0,1,3.82-4.16A30.65,30.65,0,0,1,253.92,323.73Z" style="fill:#ebebeb"></path><path d="M150.12,397.91c-1.46-.13-2-2.11-1.54-3.5s1.57-2.51,2-3.91c.27-.79.39-1.74,1.08-2.22a2.17,2.17,0,0,1,2.5.11c4.07,3.48,7.07,6.87,11.51,10.64,4.28,3.62,8.89,8.27,13.41,11.6,2.54,1.88,5.65,3.82,6,7A5.07,5.07,0,0,1,180.6,423c-2.58.18-4.81-1.65-6.74-3.37q-12.08-10.78-24.17-21.55" style="fill:#60A5FA"></path><path d="M183.46,414.25a9.06,9.06,0,0,1-1.24-.89c-.78-.6-1.93-1.42-3.37-2.44a49.05,49.05,0,0,1-4.85-3.84L168.41,402c-4-3.63-7.52-6.93-10.08-9.34l-3-2.88a7.51,7.51,0,0,1-1-1.1,8.65,8.65,0,0,1,1.19,1l3.13,2.75c2.62,2.34,6.21,5.6,10.17,9.22,2,1.82,3.84,3.54,5.55,5.12a53.75,53.75,0,0,0,4.76,3.9c1.41,1.06,2.53,1.94,3.28,2.58A7.6,7.6,0,0,1,183.46,414.25Z" style="fill:#263238"></path><path d="M180.8,416.58a7.8,7.8,0,0,1-1.3-.74c-.81-.5-2-1.26-3.39-2.22-2.84-1.92-6.69-4.69-10.77-8s-7.63-6.42-10.12-8.77c-1.25-1.17-2.25-2.14-2.91-2.83a7.57,7.57,0,0,1-1-1.1,9.92,9.92,0,0,1,1.15,1l3,2.7c2.56,2.28,6.13,5.37,10.2,8.64s7.88,6.07,10.66,8.06l3.29,2.35A8.89,8.89,0,0,1,180.8,416.58Z" style="fill:#263238"></path><g style="opacity:0.30000000000000004"><path d="M163,396.73a22.48,22.48,0,0,1-3.19,3.55,22.17,22.17,0,0,1-3.56,3.19,44.2,44.2,0,0,1,6.75-6.74Z" style="fill:#ebebeb"></path></g><g style="opacity:0.30000000000000004"><path d="M178.67,410.77a24.62,24.62,0,0,1-3.45,3.68,25.27,25.27,0,0,1-3.81,3.31,24,24,0,0,1,3.45-3.68A24.72,24.72,0,0,1,178.67,410.77Z" style="fill:#ebebeb"></path></g><g style="opacity:0.5"><path d="M238.33,297.45a43.46,43.46,0,0,1-3.41,5.76,42.59,42.59,0,0,1-3.84,5.48,45,45,0,0,1,3.41-5.76A41.45,41.45,0,0,1,238.33,297.45Z" style="fill:#ebebeb"></path></g><g style="opacity:0.5"><path d="M268,309.06a43.9,43.9,0,0,1-3-5.91,41.92,41.92,0,0,1-2.53-6.13,83.3,83.3,0,0,1,5.54,12Z" style="fill:#ebebeb"></path></g><path d="M333.25,400.4a3.18,3.18,0,0,1-3.32,1.89c-1.46-.16-2.79-1-4.26-1.11-.83-.09-1.78,0-2.4-.57a2.65,2.65,0,0,1-.45-2.45c.93-5.53,3.93-10.48,7.15-15.07s6.75-9,9-14.17c1.26-2.9,2.46-6.36,5.45-7.4a5.07,5.07,0,0,1,6.25,3.2c.75,2.48-.54,5.06-1.79,7.32L333.25,400.4" style="fill:#60A5FA"></path><path d="M343.25,366.68a8.62,8.62,0,0,1-.47,1.41c-.33.89-.84,2.17-1.48,3.74-1.29,3.14-3.16,7.45-5.37,12.14s-4.37,8.87-6,11.86c-.8,1.49-1.47,2.69-1.95,3.51a8.2,8.2,0,0,1-.79,1.25,9,9,0,0,1,.61-1.34l1.81-3.6c1.53-3,3.62-7.22,5.83-11.9s4.14-9,5.51-12.07c.66-1.48,1.21-2.71,1.63-3.67A8.26,8.26,0,0,1,343.25,366.68Z" style="fill:#263238"></path><path d="M341.57,361.14a8.55,8.55,0,0,1-.76,1.35l-2.17,3.58c-1.83,3-4.3,7.22-6.88,12s-4.76,9.1-6.31,12.27l-1.82,3.77a9.53,9.53,0,0,1-.72,1.36,8.17,8.17,0,0,1,.53-1.44c.38-.92.95-2.23,1.68-3.84,1.46-3.22,3.6-7.62,6.18-12.37s5.12-8.93,7-11.91c1-1.49,1.75-2.68,2.31-3.49A7.74,7.74,0,0,1,341.57,361.14Z" style="fill:#263238"></path><g style="opacity:0.5"><path d="M336.73,393.3a17,17,0,0,1-5.42-1.69,17.38,17.38,0,0,1-4.88-2.91c.08-.13,2.25,1.18,5.09,2.44S336.77,393.16,336.73,393.3Z" style="fill:#ebebeb"></path></g><g style="opacity:0.5"><path d="M349,372.64a45.17,45.17,0,0,1-5.3-3,46.32,46.32,0,0,1-5.16-3.28,30.14,30.14,0,0,1,5.43,2.84A29.7,29.7,0,0,1,349,372.64Z" style="fill:#ebebeb"></path></g></g><g id="freepik--Stars--inject-119"><polygon points="364.7 55.02 362.7 58.67 359.06 60.66 362.7 62.66 364.7 66.3 366.69 62.66 370.34 60.66 366.69 58.67 364.7 55.02" style="fill:#455a64"></polygon><polygon points="436.16 271.3 434.16 274.94 430.52 276.94 434.16 278.93 436.16 282.57 438.15 278.93 441.8 276.94 438.15 274.94 436.16 271.3" style="fill:#455a64"></polygon><polygon points="114.05 66.36 112.05 70 108.41 72 112.05 73.99 114.05 77.63 116.04 73.99 119.69 72 116.04 70 114.05 66.36" style="fill:#455a64"></polygon><polygon points="409.91 170.51 408.68 172.75 406.44 173.97 408.68 175.2 409.91 177.44 411.14 175.2 413.37 173.97 411.14 172.75 409.91 170.51" style="fill:#455a64"></polygon><polygon points="247.32 106.92 246.09 109.17 243.85 110.39 246.09 111.61 247.32 113.86 248.54 111.61 250.78 110.39 248.54 109.17 247.32 106.92" style="fill:#455a64"></polygon><polygon points="177.49 164.61 176.39 166.6 174.41 167.69 176.39 168.78 177.49 170.77 178.58 168.78 180.56 167.69 178.58 166.6 177.49 164.61" style="fill:#455a64"></polygon><polygon points="309.39 260.54 308.3 262.54 306.31 263.63 308.3 264.72 309.39 266.71 310.49 264.72 312.47 263.63 310.49 262.54 309.39 260.54" style="fill:#455a64"></polygon><polygon points="117.57 279.33 116.48 281.32 114.49 282.41 116.48 283.5 117.57 285.49 118.66 283.5 120.65 282.41 118.66 281.32 117.57 279.33" style="fill:#455a64"></polygon></g><g id="freepik--floating-money--inject-119"><path d="M72.43,110.13s6-3.18,12.72,1.62c4.14,3,12.93,7.56,15.64,4.77l3.33-10.75a30.63,30.63,0,0,1-12.07-5.47c-5.31-4.2-15.89-4-15.89-4Z" style="fill:#60A5FA"></path><g style="opacity:0.4"><path d="M91.19,101.66a5.38,5.38,0,0,1,1.57,8c-1.81,2.14-6,1.58-8.13-.24a5.07,5.07,0,0,1-.59-7.15C85.85,100.11,88.77,100.25,91.19,101.66Z" style="fill:#fff"></path></g><path d="M91.08,103.8c0,.07-.26,0-.59-.13a6.26,6.26,0,0,0-1.36-.43,2.27,2.27,0,0,0-.86,0,1.15,1.15,0,0,0-.67.42.87.87,0,0,0-.08.75c.08.22.34.42.76.63.2.1.43.2.67.33a2.51,2.51,0,0,1,.72.54,2,2,0,0,1,.29.41,1.54,1.54,0,0,1,.16.5,1.62,1.62,0,0,1-.14,1,1.75,1.75,0,0,1-.57.69,1.85,1.85,0,0,1-.75.31,2.6,2.6,0,0,1-1.27-.11,3.28,3.28,0,0,1-.86-.44,4.05,4.05,0,0,1-.54-.43c-.27-.27-.39-.45-.34-.52s.25,0,.59.12a6,6,0,0,0,1.36.44,2,2,0,0,0,.84,0,.76.76,0,0,0,.52-.46.54.54,0,0,0,0-.33.58.58,0,0,0,0-.14.79.79,0,0,0-.12-.15,4.44,4.44,0,0,0-1.07-.6,3.38,3.38,0,0,1-.74-.47,2.9,2.9,0,0,1-.34-.36,1.68,1.68,0,0,1-.24-.46A1.91,1.91,0,0,1,86.7,103a2.06,2.06,0,0,1,1.4-.76,2.9,2.9,0,0,1,1.24.13,3.72,3.72,0,0,1,1.41.87C91,103.55,91.13,103.74,91.08,103.8Z" style="fill:#60A5FA"></path><path d="M89.07,101.48a13.83,13.83,0,0,1-1,4,14,14,0,0,1-1.56,3.8,14.75,14.75,0,0,1,1-4A14.41,14.41,0,0,1,89.07,101.48Z" style="fill:#60A5FA"></path><path d="M89.88,102a11.63,11.63,0,0,1-.87,3.63c-.64,2-1.29,3.49-1.45,3.43a12.16,12.16,0,0,1,.88-3.62A11.81,11.81,0,0,1,89.88,102Z" style="fill:#60A5FA"></path><g style="opacity:0.5"><path d="M102.77,106.46l-3.07,9.76-.1,0c-4.81,1-10.91-3.2-14.94-6-.7-.48-1.36-.93-1.93-1.3a9,9,0,0,0-8.66-.33l-.32-.13,3.14-10.59.11,0a21,21,0,0,1,16.25,4.69c3,2.63,9.26,3.81,9.32,3.82Zm-3.35,9.45,2.89-9.18c-1.12-.22-6.48-1.4-9.29-3.86a20.61,20.61,0,0,0-15.85-4.62l-2.94,9.89a6.7,6.7,0,0,1,.94-.36,9.68,9.68,0,0,1,7.75.9l1.94,1.3C88.81,112.69,94.78,116.77,99.42,115.91Z" style="fill:#fff"></path></g><path d="M448.46,196.65s-.07,11.66-12.66,17.88C428,218.38,414,228,416.07,234.27l13.52,13.65s7.17-9.08,17.94-13.8c10.59-4.63,18.73-20.77,18.73-20.77Z" style="fill:#60A5FA"></path><g style="opacity:0.4"><path d="M446.16,231.73a9.18,9.18,0,0,1-13.28-4c-1.77-4.45,2.43-10.29,6.87-12.06A8.67,8.67,0,0,1,451,220.48C452.78,224.92,450.23,229.21,446.16,231.73Z" style="fill:#fff"></path></g><path d="M443,229.85c-.06-.14.2-.4.67-.79a10.83,10.83,0,0,0,1.75-1.7,4,4,0,0,0,.65-1.33,1.88,1.88,0,0,0-.11-1.34,1.42,1.42,0,0,0-1.07-.72,2.39,2.39,0,0,0-1.54.63c-.32.23-.65.5-1,.75a4.84,4.84,0,0,1-1.39.66,3.11,3.11,0,0,1-.86.1,2.41,2.41,0,0,1-.88-.16,2.87,2.87,0,0,1-1.34-1,3.08,3.08,0,0,1-.44-2.79,4.5,4.5,0,0,1,1.18-1.83,6,6,0,0,1,1.36-.95,6.47,6.47,0,0,1,1.09-.46c.61-.2,1-.23,1-.11s-.18.41-.65.81a11.18,11.18,0,0,0-1.76,1.69,3.38,3.38,0,0,0-.61,1.3,1.28,1.28,0,0,0,.29,1.16,1,1,0,0,0,.47.3.72.72,0,0,0,.26,0,1.18,1.18,0,0,0,.31-.05,7.53,7.53,0,0,0,1.78-1.13,6.08,6.08,0,0,1,1.29-.75,4.28,4.28,0,0,1,.82-.21,2.66,2.66,0,0,1,.89,0,3.27,3.27,0,0,1,2.5,1.88,3.51,3.51,0,0,1,0,2.72,5,5,0,0,1-1.19,1.77,6.59,6.59,0,0,1-2.44,1.43C443.46,230,443.08,230,443,229.85Z" style="fill:#60A5FA"></path><path d="M448.13,228.68c-.2.2-2.53-1.9-5.2-4.69s-4.68-5.2-4.48-5.4,2.54,1.9,5.22,4.69S448.34,228.48,448.13,228.68Z" style="fill:#60A5FA"></path><path d="M446.76,229.51c-.2.2-2.34-1.69-4.76-4.22s-4.23-4.74-4-4.94,2.34,1.7,4.76,4.23S447,229.32,446.76,229.51Z" style="fill:#60A5FA"></path><g style="opacity:0.5"><path d="M429.64,245.33l-12.25-12.46.06-.17c2.38-8,13.57-13.87,21-17.74,1.27-.66,2.48-1.29,3.5-1.86,6.83-3.8,7.74-12.13,7.44-12.78l.47-.39,13.43,13.23-.06.18a35.79,35.79,0,0,1-20.1,20.74c-6.38,2.44-13.17,10.9-13.24,11ZM418.08,232.7l11.52,11.71c1.23-1.5,7.32-8.63,13.28-10.9a35.18,35.18,0,0,0,19.68-20.19L450,201a11.75,11.75,0,0,1-.22,1.69c-.36,1.79-2,7.85-7.58,11-1,.57-2.23,1.21-3.51,1.87C431.44,219.3,420.51,225,418.08,232.7Z" style="fill:#fff"></path></g><path d="M454.86,98.61s-7.41,1.64-13.18-5.45c-3.56-4.4-11.65-11.89-15.37-9.68L419.59,94a34.14,34.14,0,0,1,11.35,9.4c4.47,6,15.88,8.89,15.88,8.89Z" style="fill:#60A5FA"></path><g style="opacity:0.4"><path d="M432.26,102.21a6,6,0,0,1,.65-9c2.57-1.77,6.88.06,8.65,2.62a5.65,5.65,0,0,1-1.46,7.85C437.54,105.43,434.45,104.43,432.26,102.21Z" style="fill:#fff"></path></g><path d="M433,100c.08-.06.28.07.6.31a6.67,6.67,0,0,0,1.33.86,2.28,2.28,0,0,0,.94.22,1.17,1.17,0,0,0,.83-.26.93.93,0,0,0,.31-.78,1.57,1.57,0,0,0-.63-.89c-.19-.17-.41-.34-.62-.55a3,3,0,0,1-.62-.79,2,2,0,0,1-.19-.53,1.89,1.89,0,0,1,0-.58,1.84,1.84,0,0,1,.44-1,1.91,1.91,0,0,1,.81-.57,1.88,1.88,0,0,1,.89-.11,3,3,0,0,1,1.33.48,3.84,3.84,0,0,1,.8.72,4.26,4.26,0,0,1,.45.63c.22.36.29.59.22.65s-.28-.06-.61-.3a7,7,0,0,0-1.33-.87,2.18,2.18,0,0,0-.9-.2.82.82,0,0,0-.7.35.64.64,0,0,0-.12.34.33.33,0,0,0,0,.17,1,1,0,0,0,.08.19,4.58,4.58,0,0,0,1,1,3.87,3.87,0,0,1,.66.72,2.54,2.54,0,0,1,.26.49,1.83,1.83,0,0,1,.13.56,2.15,2.15,0,0,1-.84,1.86,2.28,2.28,0,0,1-1.72.41,3,3,0,0,1-1.29-.5,4,4,0,0,1-1.26-1.35C433,100.24,432.93,100,433,100Z" style="fill:#60A5FA"></path><path d="M434.48,103c-.15-.1.84-1.88,2.22-4s2.63-3.72,2.79-3.62-.84,1.89-2.23,4S434.63,103.13,434.48,103Z" style="fill:#60A5FA"></path><path d="M433.75,102.27c-.15-.1.74-1.73,2-3.63s2.4-3.37,2.55-3.26-.74,1.73-2,3.63S433.91,102.37,433.75,102.27Z" style="fill:#60A5FA"></path><g style="opacity:0.5"><path d="M421.24,93.69l6.15-9.58h.11c5.44.36,10.76,6.62,14.29,10.76.6.71,1.18,1.38,1.68,2a10,10,0,0,0,9.19,2.88l.31.24-6.46,10.44h-.12a23.27,23.27,0,0,1-16.06-9.78c-2.47-3.69-8.82-6.78-8.89-6.81Zm6.35-9.16-5.77,9c1.13.56,6.53,3.4,8.84,6.85A22.85,22.85,0,0,0,446.31,110l6-9.74a7.42,7.42,0,0,1-1.11.1,10.72,10.72,0,0,1-8.05-3.22c-.51-.57-1.09-1.25-1.7-2C438,91.08,432.82,85,427.59,84.53Z" style="fill:#fff"></path></g><path d="M364.1,106.29s-9.29,7-21.89.86c-7.8-3.84-23.91-9.09-27.68-3.62l-2.58,19s11.57.15,21.87,5.82c10.13,5.57,27.88,2.19,27.88,2.19Z" style="fill:#60A5FA"></path><g style="opacity:0.4"><path d="M334.89,125.84a9.17,9.17,0,0,1-4.89-13c2.44-4.11,9.64-4.34,13.75-1.9a8.67,8.67,0,0,1,3,11.88C344.32,126.94,339.36,127.54,334.89,125.84Z" style="fill:#fff"></path></g><path d="M334.47,122.21c.06-.13.43-.09,1,.05a10.21,10.21,0,0,0,2.41.34,3.72,3.72,0,0,0,1.45-.29,1.86,1.86,0,0,0,1-.9,1.46,1.46,0,0,0-.08-1.29,2.44,2.44,0,0,0-1.45-.83c-.37-.11-.78-.22-1.22-.37a5.09,5.09,0,0,1-1.37-.7,3.58,3.58,0,0,1-.61-.62,2.64,2.64,0,0,1-.41-.8,2.94,2.94,0,0,1,0-1.66,3.08,3.08,0,0,1,.77-1.32,3.13,3.13,0,0,1,1.17-.72,4.38,4.38,0,0,1,2.17-.18,5.78,5.78,0,0,1,1.58.49,7,7,0,0,1,1,.58c.53.37.78.64.72.77s-.43.1-1,0a10.9,10.9,0,0,0-2.41-.36,3.36,3.36,0,0,0-1.4.3,1.29,1.29,0,0,0-.74.94.92.92,0,0,0,0,.55.76.76,0,0,0,.13.23,1.71,1.71,0,0,0,.24.21,7.27,7.27,0,0,0,2,.72,6,6,0,0,1,1.37.57,4.23,4.23,0,0,1,.68.52,3.28,3.28,0,0,1,.54.7,3.33,3.33,0,0,1,0,3.14,3.49,3.49,0,0,1-2.14,1.67,4.78,4.78,0,0,1-2.13.14,6.47,6.47,0,0,1-2.62-1.07C334.64,122.62,334.4,122.33,334.47,122.21Z" style="fill:#60A5FA"></path><path d="M338.5,125.55c-.28,0,0-3.17.55-7s1.27-6.88,1.55-6.83,0,3.17-.54,7S338.79,125.59,338.5,125.55Z" style="fill:#60A5FA"></path><path d="M337,125c-.28,0-.08-2.89.44-6.35s1.19-6.24,1.47-6.2.08,2.89-.45,6.35S337.29,125,337,125Z" style="fill:#60A5FA"></path><g style="opacity:0.5"><path d="M314,121l2.42-17.3.17-.07c7.82-3,19.26,2.31,26.84,5.82,1.31.61,2.54,1.18,3.61,1.64,7.17,3.1,14.34-1.25,14.67-1.88l.59.13L360,128.09l-.18.06a35.77,35.77,0,0,1-28.69-3.31c-5.83-3.57-16.67-3.8-16.78-3.8Zm3-16.86-2.28,16.27c1.95.06,11.31.54,16.74,3.88a35.17,35.17,0,0,0,28,3.31l2.15-17.48a11.25,11.25,0,0,1-1.48.86c-1.63.8-7.41,3.23-13.31.68-1.08-.47-2.32-1-3.63-1.65C335.78,106.6,324.58,101.41,317,104.17Z" style="fill:#fff"></path></g><path d="M354.44,235.92s-9.24-2-12.07-13c-1.75-6.83-7-19.52-12.36-19l-13.09,8.44a42.58,42.58,0,0,1,7.94,16.55c1.91,9.17,13.35,18.33,13.35,18.33Z" style="fill:#60A5FA"></path><g style="opacity:0.4"><path d="M327,228.22a7.44,7.44,0,0,1,5.43-9.86c3.82-.66,7.76,3.65,8.42,7.47a7,7,0,0,1-5.73,8.12C331.28,234.61,328.31,231.87,327,228.22Z" style="fill:#fff"></path></g><path d="M329,226.05c.11,0,.28.22.51.66a8.89,8.89,0,0,0,1.06,1.67,3.12,3.12,0,0,0,.94.74,1.52,1.52,0,0,0,1.09.13,1.15,1.15,0,0,0,.75-.72,2,2,0,0,0-.25-1.33c-.13-.29-.28-.6-.42-.95a4.05,4.05,0,0,1-.29-1.21,2.72,2.72,0,0,1,.06-.7,2.31,2.31,0,0,1,1.28-1.57,2.53,2.53,0,0,1,1.23-.22,2.65,2.65,0,0,1,1.06.34,3.61,3.61,0,0,1,1.25,1.24,5,5,0,0,1,.53,1.23,5.4,5.4,0,0,1,.18.94c.06.53,0,.82-.09.85s-.29-.21-.53-.65a8.69,8.69,0,0,0-1.05-1.68,2.62,2.62,0,0,0-.92-.7,1.06,1.06,0,0,0-1,0,.92.92,0,0,0-.32.33.59.59,0,0,0-.06.2.74.74,0,0,0,0,.26,5.9,5.9,0,0,0,.6,1.59,4.65,4.65,0,0,1,.37,1.16,3.07,3.07,0,0,1,0,.68,2.43,2.43,0,0,1-.15.71,2.69,2.69,0,0,1-1.92,1.67,2.81,2.81,0,0,1-2.15-.44,3.94,3.94,0,0,1-1.21-1.24,5.17,5.17,0,0,1-.72-2.17C328.85,226.37,328.9,226.07,329,226.05Z" style="fill:#60A5FA"></path><path d="M329.08,230.3c-.13-.2,1.93-1.7,4.59-3.35s4.91-2.84,5-2.65-1.93,1.7-4.59,3.36S329.2,230.49,329.08,230.3Z" style="fill:#60A5FA"></path><path d="M328.65,229.07c-.13-.2,1.73-1.57,4.14-3.07s4.47-2.56,4.6-2.37-1.74,1.58-4.15,3.07S328.77,229.26,328.65,229.07Z" style="fill:#60A5FA"></path><g style="opacity:0.5"><path d="M319,212.84l11.94-7.63.13.07c6,3.23,8.73,13.08,10.56,19.6.31,1.13.61,2.19.89,3.09,1.87,6.06,8.33,8.18,8.9,8.05l.22.43-12.74,8.45-.13-.08a29,29,0,0,1-13.09-19.42c-.87-5.47-6.44-12.28-6.5-12.35Zm12-7.06L319.7,213c1,1.23,5.62,7.25,6.43,12.36a28.47,28.47,0,0,0,12.72,19l11.9-7.88a10.92,10.92,0,0,1-1.31-.46c-1.35-.59-5.9-2.87-7.43-7.85-.28-.91-.58-2-.9-3.1C339.32,218.63,336.61,209,330.92,205.78Z" style="fill:#fff"></path></g><path d="M266.79,163.25s-7.35,1.39-12.82-5.78c-3.38-4.43-11.13-12.06-14.86-10l-6.93,10.19a33.73,33.73,0,0,1,10.9,9.6c4.22,6.1,15.38,9.24,15.38,9.24Z" style="fill:#60A5FA"></path><g style="opacity:0.4"><path d="M244.41,166.12a5.9,5.9,0,0,1,.91-8.87c2.58-1.66,6.78.27,8.45,2.85a5.56,5.56,0,0,1-1.67,7.68C249.51,169.45,246.5,168.37,244.41,166.12Z" style="fill:#fff"></path></g><path d="M245.21,163.91c.08-.06.28.07.58.32a6.48,6.48,0,0,0,1.29.89,2.51,2.51,0,0,0,.91.25,1.16,1.16,0,0,0,.83-.24.9.9,0,0,0,.33-.76,1.63,1.63,0,0,0-.59-.89c-.19-.17-.39-.35-.6-.56a3.13,3.13,0,0,1-.59-.8,2.19,2.19,0,0,1-.17-.53,1.81,1.81,0,0,1,0-.57,1.91,1.91,0,0,1,1.28-1.5,2,2,0,0,1,.88-.08,2.84,2.84,0,0,1,1.3.51,3.84,3.84,0,0,1,.76.74,4.18,4.18,0,0,1,.43.63c.2.36.26.59.19.64s-.27-.06-.58-.31a7.65,7.65,0,0,0-1.29-.9,2.29,2.29,0,0,0-.89-.22.79.79,0,0,0-.69.32.6.6,0,0,0-.13.34.45.45,0,0,0,0,.16.64.64,0,0,0,.08.19,4.41,4.41,0,0,0,.93,1,3.83,3.83,0,0,1,.62.73,2,2,0,0,1,.24.49,1.79,1.79,0,0,1,.11.55,2.1,2.1,0,0,1-.88,1.81,2.21,2.21,0,0,1-1.71.35,3,3,0,0,1-1.26-.53,4.21,4.21,0,0,1-1.2-1.36C245.19,164.19,245.14,164,245.21,163.91Z" style="fill:#60A5FA"></path><path d="M246.58,167c-.15-.1.88-1.83,2.31-3.85s2.7-3.59,2.85-3.49-.89,1.84-2.31,3.86S246.72,167.09,246.58,167Z" style="fill:#60A5FA"></path><path d="M245.88,166.22c-.15-.1.78-1.68,2.08-3.52s2.46-3.24,2.61-3.14-.78,1.68-2.07,3.52S246,166.33,245.88,166.22Z" style="fill:#60A5FA"></path><g style="opacity:0.5"><path d="M233.81,157.39l6.34-9.25h.12c5.35.51,10.4,6.84,13.75,11,.58.72,1.12,1.41,1.6,2a9.86,9.86,0,0,0,9,3.11l.3.25-6.68,10.09-.12,0a22.91,22.91,0,0,1-15.53-10.11c-2.32-3.71-8.49-6.95-8.55-7Zm6.53-8.84-6,8.69c1.1.6,6.34,3.55,8.51,7A22.61,22.61,0,0,0,258,174.18l6.24-9.43a7.45,7.45,0,0,1-1.09.07,10.57,10.57,0,0,1-7.85-3.42c-.48-.57-1-1.26-1.61-2C250.43,155.32,245.49,149.13,240.34,148.55Z" style="fill:#fff"></path></g><path d="M82.43,299.09s-7.35,1.39-12.82-5.78c-3.38-4.43-11.13-12.06-14.86-10l-6.93,10.19a33.73,33.73,0,0,1,10.9,9.6c4.22,6.1,15.38,9.24,15.38,9.24Z" style="fill:#60A5FA"></path><g style="opacity:0.4"><path d="M60.06,302a5.89,5.89,0,0,1,.91-8.87c2.58-1.66,6.78.27,8.44,2.85a5.56,5.56,0,0,1-1.67,7.68C65.16,305.29,62.14,304.21,60.06,302Z" style="fill:#fff"></path></g><path d="M60.86,299.75c.07-.06.27.07.57.32a6.48,6.48,0,0,0,1.29.89,2.51,2.51,0,0,0,.92.25,1.19,1.19,0,0,0,.83-.24.92.92,0,0,0,.32-.76,1.57,1.57,0,0,0-.59-.89c-.18-.17-.39-.35-.6-.56A3.11,3.11,0,0,1,63,298a1.83,1.83,0,0,1-.17-.53,1.56,1.56,0,0,1,0-.57,1.83,1.83,0,0,1,.45-1,1.87,1.87,0,0,1,.83-.54,1.9,1.9,0,0,1,.87-.08,2.84,2.84,0,0,1,1.3.51,3.66,3.66,0,0,1,.77.74,4,4,0,0,1,.42.63c.2.36.27.59.2.65s-.28-.07-.59-.32a7.52,7.52,0,0,0-1.28-.9,2.38,2.38,0,0,0-.89-.22.84.84,0,0,0-.7.32.69.69,0,0,0-.13.34.43.43,0,0,0,0,.16.64.64,0,0,0,.08.19,4.41,4.41,0,0,0,.93,1,3.86,3.86,0,0,1,.63.73,3.19,3.19,0,0,1,.24.49,1.78,1.78,0,0,1,.1.55A2.11,2.11,0,0,1,65.2,302a2.28,2.28,0,0,1-1.7.35,3,3,0,0,1-1.26-.54A4,4,0,0,1,61,300.4C60.84,300,60.78,299.8,60.86,299.75Z" style="fill:#60A5FA"></path><path d="M62.22,302.82c-.15-.1.88-1.83,2.31-3.85s2.7-3.59,2.85-3.49-.88,1.84-2.31,3.86S62.37,302.93,62.22,302.82Z" style="fill:#60A5FA"></path><path d="M61.53,302.06c-.15-.1.77-1.68,2.07-3.52s2.47-3.24,2.61-3.14-.77,1.68-2.07,3.52S61.67,302.17,61.53,302.06Z" style="fill:#60A5FA"></path><g style="opacity:0.5"><path d="M49.45,293.23,55.8,284h.11c5.35.51,10.41,6.84,13.75,11,.58.73,1.12,1.41,1.61,2a9.84,9.84,0,0,0,9,3.11l.3.25-6.67,10.09-.13,0A22.91,22.91,0,0,1,58.2,300.31c-2.32-3.71-8.49-6.95-8.55-7ZM56,284.39l-6,8.69c1.1.6,6.33,3.55,8.5,7A22.57,22.57,0,0,0,73.67,310l6.23-9.43a7.38,7.38,0,0,1-1.09.07A10.55,10.55,0,0,1,71,297.24c-.49-.57-1-1.26-1.61-2C66.08,291.16,61.13,285,56,284.39Z" style="fill:#fff"></path></g><path d="M190.21,204.84s-2.73,8.9-13.79,10.77c-6.85,1.15-19.75,5.26-19.64,10.57l7.2,13.55a41.94,41.94,0,0,1,16.91-6.43c9.17-1.11,19.1-11.59,19.1-11.59Z" style="fill:#60A5FA"></path><g style="opacity:0.4"><path d="M180.39,231.15a7.32,7.32,0,0,1-9.23-6.14c-.34-3.81,4.22-7.32,8-7.65a6.93,6.93,0,0,1,7.5,6.3C187,227.47,184.08,230.16,180.39,231.15Z" style="fill:#fff"></path></g><path d="M178.42,229c0-.12.24-.26.7-.45a8.23,8.23,0,0,0,1.72-.9,2.91,2.91,0,0,0,.8-.87,1.43,1.43,0,0,0,.23-1.05,1.15,1.15,0,0,0-.65-.79,1.92,1.92,0,0,0-1.33.13c-.29.1-.61.23-1,.33a3.5,3.5,0,0,1-1.21.18,2.61,2.61,0,0,1-.68-.11,2,2,0,0,1-.64-.33,2.25,2.25,0,0,1-.79-1.06,2.33,2.33,0,0,1-.12-1.22,2.51,2.51,0,0,1,.42-1,3.53,3.53,0,0,1,1.32-1.13,5,5,0,0,1,1.26-.42,6,6,0,0,1,.94-.1c.51,0,.8.05.82.16s-.23.27-.68.47a8.45,8.45,0,0,0-1.74.89,2.58,2.58,0,0,0-.76.85,1,1,0,0,0-.05.95.76.76,0,0,0,.29.34.64.64,0,0,0,.19.08,1,1,0,0,0,.26,0,5.89,5.89,0,0,0,1.61-.46,4.9,4.9,0,0,1,1.17-.27,3,3,0,0,1,.67,0,2.24,2.24,0,0,1,.68.21,2.64,2.64,0,0,1,1.49,2,2.81,2.81,0,0,1-.61,2.08,3.75,3.75,0,0,1-1.32,1.08,5,5,0,0,1-2.19.53C178.73,229.18,178.44,229.1,178.42,229Z" style="fill:#60A5FA"></path><path d="M182.6,229.27c-.2.11-1.5-2-2.91-4.78s-2.38-5.06-2.18-5.16,1.51,2,2.91,4.78S182.8,229.17,182.6,229.27Z" style="fill:#60A5FA"></path><path d="M181.36,229.59c-.2.11-1.4-1.83-2.67-4.32s-2.15-4.6-1.95-4.7,1.4,1.83,2.68,4.32S181.56,229.49,181.36,229.59Z" style="fill:#60A5FA"></path><g style="opacity:0.5"><path d="M164.62,237.77l-6.51-12.36.08-.12c3.67-5.59,13.58-7.49,20.13-8.75,1.13-.22,2.19-.42,3.1-.62,6.1-1.34,8.72-7.5,8.64-8.07l.45-.19,7.24,13.21-.09.13a28.61,28.61,0,0,1-20.16,11.25c-5.44.39-12.58,5.31-12.65,5.36Zm-5.94-12.33,6.12,11.61c1.29-.86,7.58-4.92,12.67-5.29a28.11,28.11,0,0,0,19.7-10.92l-6.76-12.34a9.88,9.88,0,0,1-.56,1.25c-.68,1.28-3.3,5.55-8.32,6.65-.92.2-2,.4-3.12.62C172,218.26,162.3,220.11,158.68,225.44Z" style="fill:#fff"></path></g><path d="M130.24,179.64s-9.15,7.22-21.87,1.26c-7.87-3.69-24.07-8.64-27.74-3.11L78.4,196.87s11.57-.06,22,5.42c10.22,5.38,27.91,1.68,27.91,1.68Z" style="fill:#60A5FA"></path><g style="opacity:0.4"><path d="M101.39,199.73a9.18,9.18,0,0,1-5.13-12.9c2.38-4.16,9.57-4.52,13.72-2.15a8.66,8.66,0,0,1,3.23,11.82C110.84,200.65,105.9,201.34,101.39,199.73Z" style="fill:#fff"></path></g><path d="M100.91,196.1c.06-.13.43-.09,1,0a10.12,10.12,0,0,0,2.42.3,3.71,3.71,0,0,0,1.44-.32,1.85,1.85,0,0,0,1-.92,1.44,1.44,0,0,0-.1-1.28,2.45,2.45,0,0,0-1.46-.81c-.38-.11-.79-.2-1.23-.35a4.87,4.87,0,0,1-1.38-.67,3.58,3.58,0,0,1-.62-.61,3,3,0,0,1-.43-.79,3,3,0,0,1-.06-1.66,3.05,3.05,0,0,1,1.9-2.08,4.44,4.44,0,0,1,2.17-.22,6,6,0,0,1,1.59.47,7.92,7.92,0,0,1,1,.56c.54.36.79.63.73.75s-.42.11-1,0a11.27,11.27,0,0,0-2.42-.31,3.3,3.3,0,0,0-1.39.33,1.26,1.26,0,0,0-.72.94,1,1,0,0,0,0,.56,1.07,1.07,0,0,0,.15.22,1.17,1.17,0,0,0,.23.21,7.45,7.45,0,0,0,2,.68,6.39,6.39,0,0,1,1.38.55,4.64,4.64,0,0,1,.69.5,3.09,3.09,0,0,1,.55.7,3.29,3.29,0,0,1,.09,3.13,3.5,3.5,0,0,1-2.11,1.72,4.94,4.94,0,0,1-2.12.17,6.44,6.44,0,0,1-2.64-1C101.09,196.51,100.85,196.22,100.91,196.1Z" style="fill:#60A5FA"></path><path d="M105,199.37c-.29,0-.1-3.17.41-7s1.15-6.9,1.43-6.86.1,3.17-.41,7S105.29,199.41,105,199.37Z" style="fill:#60A5FA"></path><path d="M103.5,198.81c-.28,0-.14-2.88.33-6.35s1.07-6.26,1.35-6.23.13,2.89-.33,6.36S103.78,198.85,103.5,198.81Z" style="fill:#60A5FA"></path><g style="opacity:0.5"><path d="M80.46,195.3,82.56,178l.16-.06c7.76-3.15,19.31,2,27,5.32,1.31.59,2.56,1.13,3.64,1.58,7.22,3,14.31-1.51,14.63-2.16l.59.13-2,18.75-.18.06a35.79,35.79,0,0,1-28.75-2.77c-5.88-3.47-16.73-3.5-16.84-3.5Zm2.66-16.91-2,16.3c1.94,0,11.31.34,16.8,3.58A35.22,35.22,0,0,0,126,201.06l1.83-17.51a11.39,11.39,0,0,1-1.47.88c-1.61.84-7.35,3.36-13.3.92-1.08-.44-2.33-1-3.65-1.58C101.93,180.47,90.64,175.48,83.12,178.39Z" style="fill:#fff"></path></g><path d="M203.63,57.07s1.28,10.2-9,17.08c-6.38,4.27-17.5,14.24-15,19.54L193,104.06a46.41,46.41,0,0,1,14.1-14.13c8.73-5.26,14-20.31,14-20.31Z" style="fill:#60A5FA"></path><g style="opacity:0.4"><path d="M205.65,88a8.1,8.1,0,0,1-12.08-2c-2.06-3.69,1-9.28,4.63-11.34a7.65,7.65,0,0,1,10.4,2.94C210.66,81.29,208.92,85.33,205.65,88Z" style="fill:#fff"></path></g><path d="M202.69,86.71c-.07-.1.13-.36.5-.76a9.46,9.46,0,0,0,1.33-1.69,3.37,3.37,0,0,0,.41-1.23,1.63,1.63,0,0,0-.25-1.16,1.25,1.25,0,0,0-1-.51,2.16,2.16,0,0,0-1.28.73c-.25.24-.51.51-.82.78a4.56,4.56,0,0,1-1.14.73,3.22,3.22,0,0,1-.74.19,2.32,2.32,0,0,1-.79,0,2.56,2.56,0,0,1-1.28-.71,2.61,2.61,0,0,1-.67-1.17,2.94,2.94,0,0,1,0-1.21,4,4,0,0,1,.82-1.74,5.26,5.26,0,0,1,1.08-1,6.25,6.25,0,0,1,.9-.53c.52-.25.83-.32.9-.22s-.11.38-.48.78a10.14,10.14,0,0,0-1.34,1.69,2.86,2.86,0,0,0-.38,1.2,1.12,1.12,0,0,0,.38,1,.89.89,0,0,0,.45.21.92.92,0,0,0,.23,0,1,1,0,0,0,.26-.08,6.5,6.5,0,0,0,1.42-1.2,6,6,0,0,1,1-.8,4.15,4.15,0,0,1,.69-.28,2.61,2.61,0,0,1,.78-.1,2.92,2.92,0,0,1,2.41,1.36,3.06,3.06,0,0,1,.33,2.37,4.2,4.2,0,0,1-.83,1.68,5.81,5.81,0,0,1-2,1.53C203.08,86.77,202.76,86.82,202.69,86.71Z" style="fill:#60A5FA"></path><path d="M207,85.11c-.16.19-2.44-1.37-5.1-3.5s-4.69-4-4.53-4.21,2.44,1.37,5.1,3.5S207.18,84.91,207,85.11Z" style="fill:#60A5FA"></path><path d="M205.92,86c-.15.2-2.24-1.21-4.65-3.14S197,79.19,197.19,79s2.24,1.22,4.65,3.15S206.08,85.8,205.92,86Z" style="fill:#60A5FA"></path><g style="opacity:0.5"><path d="M192.77,101.8l-12.14-9.49,0-.16c1.17-7.29,10.27-13.69,16.3-17.92,1-.73,2-1.42,2.85-2,5.53-4.11,5.37-11.5,5-12l.36-.39,13.27,10,0,.16a31.53,31.53,0,0,1-15.19,20.45c-5.3,2.86-10.26,11-10.31,11.12Zm-11.56-9.72L192.63,101c.9-1.46,5.4-8.39,10.35-11.07A31,31,0,0,0,217.87,70l-12.39-9.36a9.14,9.14,0,0,1,0,1.51c-.1,1.6-.81,7.09-5.36,10.46-.83.62-1.82,1.31-2.86,2C191.35,78.82,182.45,85.08,181.21,92.08Z" style="fill:#fff"></path></g></g><g id="freepik--Money--inject-119"><rect x="379.12" y="425.67" width="52.66" height="11.39" style="fill:#263238"></rect><polygon points="400.03 425.67 400.9 437.06 408.33 437.06 408.72 425.67 400.03 425.67" style="fill:#e0e0e0"></polygon><rect x="366.35" y="425.67" width="52.66" height="11.39" style="fill:#455a64"></rect><path d="M418.84,427.45c0,.15-11.71.26-26.16.26s-26.17-.11-26.17-.26,11.71-.26,26.17-.26S418.84,427.31,418.84,427.45Z" style="fill:#263238"></path><path d="M418.82,430.06c0,.14-11.71.26-26.16.26s-26.17-.12-26.17-.26,11.72-.26,26.17-.26S418.82,429.92,418.82,430.06Z" style="fill:#263238"></path><path d="M418.82,432.67c0,.14-11.71.26-26.16.26s-26.17-.12-26.17-.26,11.72-.26,26.17-.26S418.82,432.52,418.82,432.67Z" style="fill:#263238"></path><path d="M418.82,435.27c0,.15-11.71.26-26.16.26s-26.17-.11-26.17-.26,11.72-.26,26.17-.26S418.82,435.13,418.82,435.27Z" style="fill:#263238"></path><polygon points="387.25 425.67 388.12 437.06 395.56 437.06 395.94 425.67 387.25 425.67" style="fill:#e0e0e0"></polygon><rect x="385.51" y="414.4" width="52.66" height="11.39" style="fill:#263238"></rect><polygon points="406.42 414.4 407.29 425.79 414.72 425.79 415.11 414.4 406.42 414.4" style="fill:#e0e0e0"></polygon><rect x="372.74" y="414.4" width="52.66" height="11.39" style="fill:#455a64"></rect><path d="M425.23,416.19c0,.14-11.72.26-26.16.26s-26.17-.12-26.17-.26,11.71-.26,26.17-.26S425.23,416,425.23,416.19Z" style="fill:#263238"></path><path d="M425.21,418.79c0,.15-11.71.26-26.16.26s-26.17-.11-26.17-.26,11.72-.26,26.17-.26S425.21,418.65,425.21,418.79Z" style="fill:#263238"></path><path d="M425.21,421.4c0,.14-11.71.26-26.16.26s-26.17-.12-26.17-.26,11.72-.26,26.17-.26S425.21,421.26,425.21,421.4Z" style="fill:#263238"></path><path d="M425.21,424c0,.14-11.71.26-26.16.26s-26.17-.12-26.17-.26,11.72-.26,26.17-.26S425.21,423.86,425.21,424Z" style="fill:#263238"></path><polygon points="393.64 414.4 394.51 425.79 401.94 425.79 402.33 414.4 393.64 414.4" style="fill:#e0e0e0"></polygon><rect x="381.94" y="448.33" width="52.66" height="11.39" style="fill:#263238"></rect><polygon points="402.84 448.32 403.71 459.72 411.15 459.72 411.53 448.32 402.84 448.32" style="fill:#e0e0e0"></polygon><rect x="369.16" y="448.32" width="52.66" height="11.39" style="fill:#455a64"></rect><path d="M421.65,450.11c0,.15-11.71.26-26.16.26s-26.17-.11-26.17-.26,11.72-.26,26.17-.26S421.65,450,421.65,450.11Z" style="fill:#263238"></path><path d="M421.64,452.72c0,.14-11.72.26-26.17.26s-26.16-.12-26.16-.26,11.71-.26,26.16-.26S421.64,452.57,421.64,452.72Z" style="fill:#263238"></path><path d="M421.64,455.32c0,.15-11.72.27-26.17.27s-26.16-.12-26.16-.27,11.71-.26,26.16-.26S421.64,455.18,421.64,455.32Z" style="fill:#263238"></path><path d="M421.64,457.93c0,.15-11.72.26-26.17.26s-26.16-.11-26.16-.26,11.71-.26,26.16-.26S421.64,457.79,421.64,457.93Z" style="fill:#263238"></path><polygon points="390.07 448.32 390.94 459.72 398.37 459.72 398.75 448.32 390.07 448.32" style="fill:#e0e0e0"></polygon><rect x="388.33" y="437.06" width="52.66" height="11.39" style="fill:#263238"></rect><polygon points="409.23 437.06 410.1 448.45 417.54 448.45 417.92 437.06 409.23 437.06" style="fill:#e0e0e0"></polygon><rect x="375.55" y="437.06" width="52.66" height="11.39" style="fill:#455a64"></rect><path d="M428,438.84c0,.15-11.71.27-26.16.27s-26.17-.12-26.17-.27,11.72-.26,26.17-.26S428,438.7,428,438.84Z" style="fill:#263238"></path><path d="M428,441.45c0,.15-11.71.26-26.16.26s-26.16-.11-26.16-.26,11.71-.26,26.16-.26S428,441.31,428,441.45Z" style="fill:#263238"></path><path d="M428,444.06c0,.14-11.71.26-26.16.26s-26.16-.12-26.16-.26,11.71-.26,26.16-.26S428,443.91,428,444.06Z" style="fill:#263238"></path><path d="M428,446.66c0,.15-11.71.27-26.16.27s-26.16-.12-26.16-.27,11.71-.26,26.16-.26S428,446.52,428,446.66Z" style="fill:#263238"></path><polygon points="396.45 437.06 397.32 448.45 404.76 448.45 405.14 437.06 396.45 437.06" style="fill:#e0e0e0"></polygon><rect x="346.51" y="436.94" width="52.66" height="11.39" style="fill:#60A5FA"></rect><rect x="346.51" y="436.94" width="52.66" height="11.39" style="opacity:0.2"></rect><polygon points="367.42 436.94 368.29 448.33 375.72 448.33 376.11 436.94 367.42 436.94" style="fill:#e0e0e0"></polygon><rect x="340.73" y="448.33" width="52.66" height="11.39" style="fill:#60A5FA"></rect><rect x="340.73" y="448.33" width="52.66" height="11.39" style="opacity:0.2"></rect><polygon points="361.64 448.32 362.5 459.72 369.94 459.72 370.32 448.32 361.64 448.32" style="fill:#e0e0e0"></polygon><rect x="327.95" y="448.33" width="52.66" height="11.39" style="fill:#60A5FA"></rect><g style="opacity:0.2"><path d="M380.45,450.11c0,.15-11.72.26-26.17.26s-26.16-.11-26.16-.26,11.71-.26,26.16-.26S380.45,450,380.45,450.11Z"></path></g><g style="opacity:0.2"><path d="M380.43,452.72c0,.14-11.72.26-26.16.26s-26.17-.12-26.17-.26,11.71-.26,26.17-.26S380.43,452.57,380.43,452.72Z"></path></g><g style="opacity:0.2"><path d="M380.43,455.32c0,.15-11.72.27-26.16.27s-26.17-.12-26.17-.27,11.71-.26,26.17-.26S380.43,455.18,380.43,455.32Z"></path></g><g style="opacity:0.2"><path d="M380.43,457.93c0,.15-11.72.26-26.16.26s-26.17-.11-26.17-.26,11.71-.26,26.17-.26S380.43,457.79,380.43,457.93Z"></path></g><polygon points="348.86 448.32 349.73 459.72 357.16 459.72 357.55 448.32 348.86 448.32" style="fill:#e0e0e0"></polygon><rect x="335.55" y="436.94" width="52.66" height="11.39" style="fill:#60A5FA"></rect><g style="opacity:0.2"><path d="M388.05,438.72c0,.15-11.72.26-26.16.26s-26.17-.11-26.17-.26,11.71-.26,26.17-.26S388.05,438.58,388.05,438.72Z"></path></g><g style="opacity:0.2"><path d="M388,441.33c0,.14-11.71.26-26.16.26s-26.17-.12-26.17-.26,11.71-.26,26.17-.26S388,441.18,388,441.33Z"></path></g><g style="opacity:0.2"><path d="M388,443.94c0,.14-11.71.26-26.16.26s-26.17-.12-26.17-.26,11.71-.26,26.17-.26S388,443.79,388,443.94Z"></path></g><g style="opacity:0.2"><path d="M388,446.54c0,.15-11.71.26-26.16.26s-26.17-.11-26.17-.26,11.71-.26,26.17-.26S388,446.4,388,446.54Z"></path></g><polygon points="356.46 436.94 357.33 448.33 364.76 448.33 365.15 436.94 356.46 436.94" style="fill:#e0e0e0"></polygon><rect x="97.2" y="448.33" width="52.66" height="11.39" style="fill:#263238"></rect><polygon points="118.1 448.32 118.97 459.72 126.41 459.72 126.79 448.32 118.1 448.32" style="fill:#e0e0e0"></polygon><rect x="84.42" y="448.32" width="52.66" height="11.39" style="fill:#455a64"></rect><path d="M136.91,450.11c0,.15-11.71.26-26.16.26s-26.17-.11-26.17-.26,11.72-.26,26.17-.26S136.91,450,136.91,450.11Z" style="fill:#263238"></path><path d="M136.89,452.72c0,.14-11.71.26-26.16.26s-26.16-.12-26.16-.26,11.71-.26,26.16-.26S136.89,452.57,136.89,452.72Z" style="fill:#263238"></path><path d="M136.89,455.32c0,.15-11.71.27-26.16.27s-26.16-.12-26.16-.27,11.71-.26,26.16-.26S136.89,455.18,136.89,455.32Z" style="fill:#263238"></path><path d="M136.89,457.93c0,.15-11.71.26-26.16.26s-26.16-.11-26.16-.26,11.71-.26,26.16-.26S136.89,457.79,136.89,457.93Z" style="fill:#263238"></path><polygon points="105.32 448.32 106.19 459.72 113.63 459.72 114.01 448.32 105.32 448.32" style="fill:#f5f5f5"></polygon><rect x="90.79" y="437.06" width="52.66" height="11.39" style="fill:#263238"></rect><polygon points="111.7 437.06 112.56 448.45 120 448.45 120.39 437.06 111.7 437.06" style="fill:#e0e0e0"></polygon><rect x="78.01" y="437.06" width="52.66" height="11.39" style="fill:#455a64"></rect><path d="M130.51,438.84c0,.15-11.72.27-26.17.27s-26.16-.12-26.16-.27,11.71-.26,26.16-.26S130.51,438.7,130.51,438.84Z" style="fill:#263238"></path><path d="M130.49,441.45c0,.15-11.72.26-26.17.26s-26.16-.11-26.16-.26,11.71-.26,26.16-.26S130.49,441.31,130.49,441.45Z" style="fill:#263238"></path><path d="M130.49,444.06c0,.14-11.72.26-26.17.26s-26.16-.12-26.16-.26,11.71-.26,26.16-.26S130.49,443.91,130.49,444.06Z" style="fill:#263238"></path><path d="M130.49,446.66c0,.15-11.72.27-26.17.27s-26.16-.12-26.16-.27,11.71-.26,26.16-.26S130.49,446.52,130.49,446.66Z" style="fill:#263238"></path><polygon points="98.92 437.06 99.79 448.45 107.22 448.45 107.61 437.06 98.92 437.06" style="fill:#f5f5f5"></polygon></g></svg>