<svg xmlns="http://www.w3.org/2000/svg" viewBox="0 0 500 500"><defs><clipPath id="a"><path style="fill:none" d="m132.46 88.19-12.94 11.3 11.8 37.53 27.21-.5 6.05-46.04-19.33-5.25-12.79 2.96z"/></clipPath><clipPath id="b"><path d="m119.52 99.49-10.12 25.89s7.86 4.59 8 4.09 8.13-11 8.13-11Z" style="fill:none"/></clipPath><clipPath id="c"><path style="fill:none" d="m164.58 90.48 24.86 19.91-9.68 5.71-17.14-9.89 1.96-15.73z"/></clipPath><clipPath id="d"><path d="m424.06 357-6.48 11.18a36.36 36.36 0 0 1 5.53 10c1.53 4.42 8 29.28 11.9 40.68a14.2 14.2 0 0 0 2 4 4.69 4.69 0 0 1 1 2.72 2.21 2.21 0 0 1-2 2.39c-2.34.34-15.41 1.49-16.08.94-.43-.36 6.11-3.1 8.85-4.9a7.6 7.6 0 0 0 2.22-2.11s-18.69-40.35-20.67-45.25a29.42 29.42 0 0 1-2.15-12.37 95.24 95.24 0 0 1 1-10.8Z" style="fill:none"/></clipPath><clipPath id="e"><path d="M401.86 313.73s-3.32 8.41-8 21.43-.35 32.71-.35 32.71 3.43 2.14 12.71-.44 17.08-5.25 17.08-5.25 6-14.52 6.35-23.78-5.85-20.61-5.85-20.61-12.61-15.57-21.94-4.06Z" style="fill:none"/></clipPath><clipPath id="f"><path d="M411.27 276.77a61 61 0 0 0-9.23-1c-3.93 0-11.19.4-14.91-1.37s-8.69-6.38-8.69-6.38l-8.38-25-3.71.26s3.55 21 3.55 24.72a13 13 0 0 0 3.14 8.44c1.77 2.36 14.09 9.32 18.6 11.67l2 1s-3.53 5.3-2.94 7.65 5.29 5.3 6.28 7.06 4.42 11.38 4.42 11.38q4.18-7.56 7.59-15.49c4.63-10.56 8.36-18.41 2.28-22.94Z" style="fill:none"/></clipPath></defs><ellipse cx="234.59" cy="420.38" rx="156.32" ry="7.84" style="fill:#92e3a9"/><ellipse cx="234.59" cy="420.38" rx="156.32" ry="7.84" style="fill:#fff;opacity:.699999988079071;isolation:isolate"/><ellipse cx="418.57" cy="431.44" rx="30.43" ry="6.91" style="fill:#92e3a9"/><ellipse cx="418.57" cy="431.44" rx="30.43" ry="6.91" style="fill:#fff;opacity:.699999988079071;isolation:isolate"/><g><path d="M140.17 397.79c-1.39-2.15-3.31-5.26-5.53-9.08-.63-1.1-1.27-2.27-1.92-3.49.47-.3 4.33-2.74 5.53-4.54 1.11-1.61 2-4 1.3-5.92a3.45 3.45 0 0 0-4.32-2.25l-.35.13c-2.64 1.25-3.5 6.43-3.17 9 0 .15.5 2.08.76 3.06l-1.18-2.21c-.57-1.11-1.11-2.3-1.71-3.44l-.82-1.85c-.29-.62-.5-1.24-.75-1.87-.35-.93-.67-1.91-1-2.89 1.11-.52 4.56-2.1 5.82-3.49s2.56-3.64 2.21-5.67a3.45 3.45 0 0 0-3.92-2.88l-.38.08c-2.79.83-4.43 5.82-4.49 8.42a9.11 9.11 0 0 0 .1 1.3c-.28-1-.57-1.93-.82-2.91-.72-2.8-1.36-5.67-2-8.53-.13-.6-.27-1.2-.42-1.79 1-.43 4.67-2.13 6-3.59s2.57-3.64 2.21-5.66a3.46 3.46 0 0 0-3.94-2.88l-.36.08c-2.79.83-4.43 5.83-4.49 8.43 0 .09 0 .75.12 1.48-.38-1.55-.78-3.1-1.22-4.62a62.49 62.49 0 0 0-2.75-7.67c.35-.14 4.71-2 6.18-3.66 1.31-1.44 2.57-3.64 2.21-5.65a3.45 3.45 0 0 0-3.93-2.89 2.21 2.21 0 0 0-.37.08c-2.79.83-4.42 5.83-4.49 8.43 0 .17.21 2.55.32 3.4v-.08a45.84 45.84 0 0 0-4-6.93 64.57 64.57 0 0 0-4.43-5.61c-1.45-1.67-2.88-3.11-4.15-4.42-.7-.68-1.35-1.29-2-1.85s-1.36-3.25-1.47-3.45c-1.3-2.22-5.14-5.83-8-5.21a3.44 3.44 0 0 0-2.52 4.16c0 .12.07.24.11.36.63 2 2.8 3.32 4.64 3.92s6 .33 7 .24c.62.6 1.28 1.24 2 2 1.24 1.29 2.64 2.75 4 4.42.38.45.76 1 1.11 1.43-.82-.67-1.95-1.58-2.07-1.66-2.21-1.39-7.26-2.8-9.49-.94a3.43 3.43 0 0 0-.34 4.85 1.79 1.79 0 0 0 .27.28c1.47 1.44 4 1.62 5.92 1.33s5.53-2.53 6.37-3c.83 1.11 1.66 2.21 2.46 3.42a44.64 44.64 0 0 1 3.8 6.91c.06.14.1.29.17.43-.34-.39-2.39-2.46-2.56-2.6-2-1.62-6.9-3.58-9.33-2a3.47 3.47 0 0 0-.84 4.83 2.88 2.88 0 0 0 .22.27c1.29 1.6 3.79 2 5.73 2 2.21-.07 6.64-2.3 6.81-2.39a58.56 58.56 0 0 1 2.49 7.48c.51 1.87.94 3.8 1.35 5.73-.45-.51-2.36-2.43-2.51-2.55-2-1.63-6.9-3.59-9.34-2a3.45 3.45 0 0 0-.86 4.8l.23.3c1.31 1.59 3.8 2 5.74 2 2.22-.08 6.42-2.22 6.77-2.37.19.87.39 1.76.57 2.63.6 2.89 1.18 5.78 1.85 8.61.22 1 .48 2 .74 2.91-.71-.75-2-2.08-2.16-2.21-2-1.64-6.91-3.59-9.34-2a3.46 3.46 0 0 0-.86 4.81 3.25 3.25 0 0 0 .23.29c1.31 1.6 3.8 2.05 5.74 2s5.54-1.77 6.55-2.21c.45 1.59.92 3.18 1.46 4.7.26.66.47 1.34.73 2s.52 1.25.79 1.86c.57 1.25 1.1 2.41 1.67 3.56.28.58.56 1.11.84 1.68-.61-.86-1.59-2.21-1.7-2.32-1.76-1.93-6.29-4.59-8.93-3.38a3.44 3.44 0 0 0-1.58 4.61c0 .11.12.22.18.33 1.11 1.78 3.45 2.6 5.38 2.82 2.13.25 6.5-1.11 7-1.31.69 1.38 1.38 2.7 2 3.94 2.12 3.91 4 7.07 5.38 9.28s2.21 3.44 2.21 3.44a1 1 0 0 0 1.43.25 1 1 0 0 0 .25-1.42s-.73-1.29-2.14-3.43Z" style="fill:#92e3a9"/><path d="M111.61 331.53s4-3.17 5.06-5.21c.87-1.72 1.5-4.18.59-6a3.44 3.44 0 0 0-4.54-1.74l-.34.17c-2.47 1.54-2.74 6.79-2.11 9.32.09.19 1.34 3.49 1.34 3.46ZM137.88 399.67c-2.34-1-5.68-2.53-9.6-4.52-1.1-.57-2.32-1.19-3.54-1.86.25-.5 2.11-4.67 2.1-6.82 0-1.94-.54-4.43-2.21-5.65a3.44 3.44 0 0 0-4.84.49l-.23.31c-1.51 2.5.62 7.3 2.33 9.26.11.14 1.57 1.47 2.32 2.15l-2.21-1.22c-1.11-.61-2.21-1.28-3.32-1.93l-1.68-1.11c-.59-.35-1.11-.76-1.66-1.11-.81-.57-1.62-1.21-2.41-1.85.68-1.11 2.63-4.27 2.92-6.13s.12-4.43-1.31-5.92a3.45 3.45 0 0 0-4.86-.28 3.57 3.57 0 0 0-.27.28c-1.87 2.21-.49 7.3.89 9.5a9.66 9.66 0 0 0 .8 1c-.76-.65-1.54-1.3-2.29-2-2.13-1.94-4.26-4-6.38-6l-1.36-1.26c.58-.89 2.73-4.34 3-6.28s.12-4.43-1.31-5.93a3.44 3.44 0 0 0-4.87-.26l-.26.26c-1.87 2.21-.49 7.31.9 9.51a10.43 10.43 0 0 0 .91 1.17c-1.17-1.09-2.36-2.16-3.56-3.18a60.81 60.81 0 0 0-6.52-4.88c.21-.32 2.81-4.29 3.14-6.46.29-1.93.12-4.43-1.31-5.93a3.45 3.45 0 0 0-4.89-.24l-.24.24c-1.87 2.21-.49 7.31.89 9.51.1.16 1.6 2 2.15 2.67l-.08-.06a45.37 45.37 0 0 0-7.15-3.56 64 64 0 0 0-6.79-2.21c-2.13-.6-4.12-1-5.88-1.36-1-.18-1.83-.33-2.64-.47s-2.94-1.95-3.14-2.05c-2.32-1.16-7.51-2-9.54.05a3.46 3.46 0 0 0 .2 4.88l.28.23c1.61 1.29 4.14 1.19 6 .71s5.19-3 6-3.67c.85.15 1.76.33 2.75.54 1.75.39 3.72.84 5.83 1.48.57.17 1.11.38 1.74.56-1-.11-2.49-.25-2.62-.24-2.61 0-7.6 1.66-8.45 4.43a3.43 3.43 0 0 0 2.42 4.23 2.33 2.33 0 0 0 .36.08c2 .4 4.23-.85 5.67-2.21s3.32-5.2 3.64-6c1.28.43 2.6.91 3.93 1.49a43.91 43.91 0 0 1 7 3.67l.37.28c-.51-.14-3.32-.74-3.55-.76-2.6-.23-7.74.82-8.85 3.51a3.44 3.44 0 0 0 2 4.47 3.4 3.4 0 0 0 .34.12c2 .61 4.29-.39 5.87-1.52 1.82-1.3 4.27-5.6 4.36-5.75a60.45 60.45 0 0 1 6.2 4.85c1.46 1.3 2.89 2.66 4.3 4-.67-.16-3.32-.72-3.52-.74-2.58-.24-7.74.82-8.85 3.5a3.45 3.45 0 0 0 1.93 4.47l.36.12c2 .62 4.3-.38 5.88-1.52 1.77-1.27 4.14-5.36 4.33-5.71l1.93 1.9c2.09 2.06 4.17 4.16 6.28 6.15.73.69 1.49 1.35 2.22 2-1-.23-2.85-.61-3-.63-2.6-.23-7.75.83-8.85 3.51a3.44 3.44 0 0 0 1.92 4.47l.37.12c2 .61 4.29-.39 5.87-1.52s3.65-4.53 4.22-5.53c1.25 1.11 2.51 2.15 3.8 3.12.58.41 1.11.86 1.69 1.23l1.68 1.1c1.17.72 2.21 1.4 3.31 2.05l1.63.94c-1-.39-2.56-1-2.7-1-2.53-.63-7.74-.36-9.31 2.12a3.45 3.45 0 0 0 1.24 4.72 2.55 2.55 0 0 0 .33.17c1.84.89 4.3.26 6-.61 1.91-1 4.79-4.54 5.14-5 1.34.77 2.64 1.5 3.88 2.15 3.91 2.09 7.25 3.69 9.61 4.78s3.72 1.66 3.72 1.66a1 1 0 0 0 .73-1.92s-1.27-.35-3.63-1.35Z" style="fill:#92e3a9"/><path d="M77.54 360.15s1.6-4.86 1.34-7.12c-.23-1.94-1.11-4.33-2.82-5.37a3.46 3.46 0 0 0-4.77 1.06 2.58 2.58 0 0 0-.18.32c-1.22 2.66 1.46 7.18 3.39 8.93.16.16 3.03 2.24 3.04 2.18Z" style="fill:#92e3a9"/><g style="opacity:.4000000059604645"><path d="M140.17 397.79c-1.39-2.15-3.31-5.26-5.53-9.08-.63-1.1-1.27-2.27-1.92-3.49.47-.3 4.33-2.74 5.53-4.54 1.11-1.61 2-4 1.3-5.92a3.45 3.45 0 0 0-4.32-2.25l-.35.13c-2.64 1.25-3.5 6.43-3.17 9 0 .15.5 2.08.76 3.06l-1.18-2.21c-.57-1.11-1.11-2.3-1.71-3.44l-.82-1.85c-.29-.62-.5-1.24-.75-1.87-.35-.93-.67-1.91-1-2.89 1.11-.52 4.56-2.1 5.82-3.49s2.56-3.64 2.21-5.67a3.45 3.45 0 0 0-3.92-2.88l-.38.08c-2.79.83-4.43 5.82-4.49 8.42a9.11 9.11 0 0 0 .1 1.3c-.28-1-.57-1.93-.82-2.91-.72-2.8-1.36-5.67-2-8.53-.13-.6-.27-1.2-.42-1.79 1-.43 4.67-2.13 6-3.59s2.57-3.64 2.21-5.66a3.46 3.46 0 0 0-3.94-2.88l-.36.08c-2.79.83-4.43 5.83-4.49 8.43 0 .09 0 .75.12 1.48-.38-1.55-.78-3.1-1.22-4.62a62.49 62.49 0 0 0-2.75-7.67c.35-.14 4.71-2 6.18-3.66 1.31-1.44 2.57-3.64 2.21-5.65a3.45 3.45 0 0 0-3.93-2.89 2.21 2.21 0 0 0-.37.08c-2.79.83-4.42 5.83-4.49 8.43 0 .17.21 2.55.32 3.4v-.08a45.84 45.84 0 0 0-4-6.93 64.57 64.57 0 0 0-4.43-5.61c-1.45-1.67-2.88-3.11-4.15-4.42-.7-.68-1.35-1.29-2-1.85s-1.36-3.25-1.47-3.45c-1.3-2.22-5.14-5.83-8-5.21a3.44 3.44 0 0 0-2.52 4.16c0 .12.07.24.11.36.63 2 2.8 3.32 4.64 3.92s6 .33 7 .24c.62.6 1.28 1.24 2 2 1.24 1.29 2.64 2.75 4 4.42.38.45.76 1 1.11 1.43-.82-.67-1.95-1.58-2.07-1.66-2.21-1.39-7.26-2.8-9.49-.94a3.43 3.43 0 0 0-.34 4.85 1.79 1.79 0 0 0 .27.28c1.47 1.44 4 1.62 5.92 1.33s5.53-2.53 6.37-3c.83 1.11 1.66 2.21 2.46 3.42a44.64 44.64 0 0 1 3.8 6.91c.06.14.1.29.17.43-.34-.39-2.39-2.46-2.56-2.6-2-1.62-6.9-3.58-9.33-2a3.47 3.47 0 0 0-.84 4.83 2.88 2.88 0 0 0 .22.27c1.29 1.6 3.79 2 5.73 2 2.21-.07 6.64-2.3 6.81-2.39a58.56 58.56 0 0 1 2.49 7.48c.51 1.87.94 3.8 1.35 5.73-.45-.51-2.36-2.43-2.51-2.55-2-1.63-6.9-3.59-9.34-2a3.45 3.45 0 0 0-.86 4.8l.23.3c1.31 1.59 3.8 2 5.74 2 2.22-.08 6.42-2.22 6.77-2.37.19.87.39 1.76.57 2.63.6 2.89 1.18 5.78 1.85 8.61.22 1 .48 2 .74 2.91-.71-.75-2-2.08-2.16-2.21-2-1.64-6.91-3.59-9.34-2a3.46 3.46 0 0 0-.86 4.81 3.25 3.25 0 0 0 .23.29c1.31 1.6 3.8 2.05 5.74 2s5.54-1.77 6.55-2.21c.45 1.59.92 3.18 1.46 4.7.26.66.47 1.34.73 2s.52 1.25.79 1.86c.57 1.25 1.1 2.41 1.67 3.56.28.58.56 1.11.84 1.68-.61-.86-1.59-2.21-1.7-2.32-1.76-1.93-6.29-4.59-8.93-3.38a3.44 3.44 0 0 0-1.58 4.61c0 .11.12.22.18.33 1.11 1.78 3.45 2.6 5.38 2.82 2.13.25 6.5-1.11 7-1.31.69 1.38 1.38 2.7 2 3.94 2.12 3.91 4 7.07 5.38 9.28s2.21 3.44 2.21 3.44a1 1 0 0 0 1.43.25 1 1 0 0 0 .25-1.42s-.73-1.29-2.14-3.43Z" style="fill:#fff"/><path d="M111.61 331.53s4-3.17 5.06-5.21c.87-1.72 1.5-4.18.59-6a3.44 3.44 0 0 0-4.54-1.74l-.34.17c-2.47 1.54-2.74 6.79-2.11 9.32.09.19 1.34 3.49 1.34 3.46ZM137.88 399.67c-2.34-1-5.68-2.53-9.6-4.52-1.1-.57-2.32-1.19-3.54-1.86.25-.5 2.11-4.67 2.1-6.82 0-1.94-.54-4.43-2.21-5.65a3.44 3.44 0 0 0-4.84.49l-.23.31c-1.51 2.5.62 7.3 2.33 9.26.11.14 1.57 1.47 2.32 2.15l-2.21-1.22c-1.11-.61-2.21-1.28-3.32-1.93l-1.68-1.11c-.59-.35-1.11-.76-1.66-1.11-.81-.57-1.62-1.21-2.41-1.85.68-1.11 2.63-4.27 2.92-6.13s.12-4.43-1.31-5.92a3.45 3.45 0 0 0-4.86-.28 3.57 3.57 0 0 0-.27.28c-1.87 2.21-.49 7.3.89 9.5a9.66 9.66 0 0 0 .8 1c-.76-.65-1.54-1.3-2.29-2-2.13-1.94-4.26-4-6.38-6l-1.36-1.26c.58-.89 2.73-4.34 3-6.28s.12-4.43-1.31-5.93a3.44 3.44 0 0 0-4.87-.26l-.26.26c-1.87 2.21-.49 7.31.9 9.51a10.43 10.43 0 0 0 .91 1.17c-1.17-1.09-2.36-2.16-3.56-3.18a60.81 60.81 0 0 0-6.52-4.88c.21-.32 2.81-4.29 3.14-6.46.29-1.93.12-4.43-1.31-5.93a3.45 3.45 0 0 0-4.89-.24l-.24.24c-1.87 2.21-.49 7.31.89 9.51.1.16 1.6 2 2.15 2.67l-.08-.06a45.37 45.37 0 0 0-7.15-3.56 64 64 0 0 0-6.79-2.21c-2.13-.6-4.12-1-5.88-1.36-1-.18-1.83-.33-2.64-.47s-2.94-1.95-3.14-2.05c-2.32-1.16-7.51-2-9.54.05a3.46 3.46 0 0 0 .2 4.88l.28.23c1.61 1.29 4.14 1.19 6 .71s5.19-3 6-3.67c.85.15 1.76.33 2.75.54 1.75.39 3.72.84 5.83 1.48.57.17 1.11.38 1.74.56-1-.11-2.49-.25-2.62-.24-2.61 0-7.6 1.66-8.45 4.43a3.43 3.43 0 0 0 2.42 4.23 2.33 2.33 0 0 0 .36.08c2 .4 4.23-.85 5.67-2.21s3.32-5.2 3.64-6c1.28.43 2.6.91 3.93 1.49a43.91 43.91 0 0 1 7 3.67l.37.28c-.51-.14-3.32-.74-3.55-.76-2.6-.23-7.74.82-8.85 3.51a3.44 3.44 0 0 0 2 4.47 3.4 3.4 0 0 0 .34.12c2 .61 4.29-.39 5.87-1.52 1.82-1.3 4.27-5.6 4.36-5.75a60.45 60.45 0 0 1 6.2 4.85c1.46 1.3 2.89 2.66 4.3 4-.67-.16-3.32-.72-3.52-.74-2.58-.24-7.74.82-8.85 3.5a3.45 3.45 0 0 0 1.93 4.47l.36.12c2 .62 4.3-.38 5.88-1.52 1.77-1.27 4.14-5.36 4.33-5.71l1.93 1.9c2.09 2.06 4.17 4.16 6.28 6.15.73.69 1.49 1.35 2.22 2-1-.23-2.85-.61-3-.63-2.6-.23-7.75.83-8.85 3.51a3.44 3.44 0 0 0 1.92 4.47l.37.12c2 .61 4.29-.39 5.87-1.52s3.65-4.53 4.22-5.53c1.25 1.11 2.51 2.15 3.8 3.12.58.41 1.11.86 1.69 1.23l1.68 1.1c1.17.72 2.21 1.4 3.31 2.05l1.63.94c-1-.39-2.56-1-2.7-1-2.53-.63-7.74-.36-9.31 2.12a3.45 3.45 0 0 0 1.24 4.72 2.55 2.55 0 0 0 .33.17c1.84.89 4.3.26 6-.61 1.91-1 4.79-4.54 5.14-5 1.34.77 2.64 1.5 3.88 2.15 3.91 2.09 7.25 3.69 9.61 4.78s3.72 1.66 3.72 1.66a1 1 0 0 0 .73-1.92s-1.27-.35-3.63-1.35Z" style="fill:#fff"/><path d="M77.54 360.15s1.6-4.86 1.34-7.12c-.23-1.94-1.11-4.33-2.82-5.37a3.46 3.46 0 0 0-4.77 1.06 2.58 2.58 0 0 0-.18.32c-1.22 2.66 1.46 7.18 3.39 8.93.16.16 3.03 2.24 3.04 2.18Z" style="fill:#fff"/></g><path d="M307.76 350c.12 28.66 22.89 51.83 22.89 51.83s22.6-23.33 22.48-52S330.2 298 330.2 298s-22.57 23.29-22.44 52Z" style="fill:#92e3a9"/><path style="fill:none;stroke:#fff;stroke-miterlimit:10;stroke-width:.9938565432589912px" d="m330.7 401.76-.46-103.81M330.41 334.85l-12.77-11.05M330.67 352l15.66-22.87M330.52 361.89l-18.84-16.67M330.78 375.21l18.49-16.63M330.83 386.71l-14.58-11.44"/><path d="M292.22 394.23c11.06 12.38 29.87 13.66 29.87 13.66s.83-18.81-10.26-31.22S282 363.06 282 363.06s-.87 18.81 10.22 31.17Z" style="fill:#92e3a9"/><path style="fill:none;stroke:#fff;stroke-miterlimit:10;stroke-width:.9938565432589912px" d="m322.1 407.89-40.14-44.87M296.22 378.97l-9.77.11M302.95 386.3l-2.01-15.94M306.68 390.65l-14.58.02M311.92 396.33l1.63-14.33M316.37 401.3l-10.73.65"/><path d="M350 376.07c-11.53 12-11.38 30.82-11.38 30.82s18.8-.57 30.35-12.56 11.39-30.82 11.39-30.82-18.83.59-30.36 12.56Z" style="fill:#92e3a9"/><path style="fill:none;stroke:#fff;stroke-miterlimit:10;stroke-width:.9938565432589912px" d="m338.62 406.89 41.74-43.38M365.52 378.94l-.84-9.75M358.71 386.18l15.75-3.2M354.65 390.23l-1.11-14.55M349.38 395.88l14.4.55M344.76 400.68l-1.45-10.65"/><g style="opacity:.4000000059604645"><path d="M307.76 350c.12 28.66 22.89 51.83 22.89 51.83s22.6-23.33 22.48-52S330.2 298 330.2 298s-22.57 23.29-22.44 52Z" style="fill:#fff"/><path style="fill:none" d="m330.7 401.76-.46-103.81M330.41 334.85l-12.77-11.05M330.67 352l15.66-22.87M330.52 361.89l-18.84-16.67M330.78 375.21l18.49-16.63M330.83 386.71l-14.58-11.44"/><path d="M292.22 394.23c11.06 12.38 29.87 13.66 29.87 13.66s.83-18.81-10.26-31.22S282 363.06 282 363.06s-.87 18.81 10.22 31.17Z" style="fill:#fff"/><path style="fill:none" d="m322.1 407.89-40.14-44.87M296.22 378.97l-9.77.11M302.95 386.3l-2.01-15.94M306.68 390.65l-14.58.02M311.92 396.33l1.63-14.33M316.37 401.3l-10.73.65"/><path d="M350 376.07c-11.53 12-11.38 30.82-11.38 30.82s18.8-.57 30.35-12.56 11.39-30.82 11.39-30.82-18.83.59-30.36 12.56Z" style="fill:#fff"/><path style="fill:none" d="m338.62 406.89 41.74-43.38M365.52 378.94l-.84-9.75M358.71 386.18l15.75-3.2M354.65 390.23l-1.11-14.55M349.38 395.88l14.4.55M344.76 400.68l-1.45-10.65"/></g><path d="M278.49 100.94c.1 23.94 19.16 43.28 19.16 43.28s18.89-19.49 18.81-43.44-19.16-43.29-19.16-43.29-18.92 19.51-18.81 43.45Z" style="fill:#92e3a9"/><path style="fill:none;stroke:#fff;stroke-miterlimit:10;stroke-width:.9938565432589912px" d="m297.65 144.22-.37-86.73M297.41 88.32l-10.67-9.23M297.64 102.64l13.07-19.1M297.51 110.91l-15.74-13.93M297.72 122.04l15.45-13.9M297.76 131.65l-12.18-9.56"/><path d="M265.5 137.93c9.26 10.35 25 11.41 25 11.41s.7-15.73-8.56-26.07-25-11.41-25-11.41-.7 15.72 8.56 26.07Z" style="fill:#92e3a9"/><path style="fill:none;stroke:#fff;stroke-miterlimit:10;stroke-width:.9938565432589912px" d="m290.46 149.34-33.52-37.48M268.86 125.18l-8.18.1M274.46 131.31l-1.68-13.32M277.59 134.94l-12.19.02M281.96 139.68l1.37-11.97M285.68 143.84l-8.96.54"/><path d="M313.78 122.76c-9.62 10-9.51 25.75-9.51 25.75S320 148 329.63 138s9.52-25.74 9.52-25.74-15.73.5-25.37 10.5Z" style="fill:#92e3a9"/><path style="fill:none;stroke:#fff;stroke-miterlimit:10;stroke-width:.9938565432589912px" d="m304.27 148.51 34.88-36.24M326.75 125.15l-.71-8.15M321.06 131.21l13.15-2.68M317.66 134.59l-.93-12.15M313.26 139.31l12.04.46M309.4 143.32l-1.22-8.89"/><g style="opacity:.4000000059604645"><path d="M278.49 100.94c.1 23.94 19.16 43.28 19.16 43.28s18.89-19.49 18.81-43.44-19.16-43.29-19.16-43.29-18.92 19.51-18.81 43.45Z" style="fill:#fff"/><path style="fill:none" d="m297.65 144.22-.37-86.73M297.41 88.32l-10.67-9.23M297.64 102.64l13.07-19.1M297.51 110.91l-15.74-13.93M297.72 122.04l15.45-13.9M297.76 131.65l-12.18-9.56"/><path d="M265.5 137.93c9.26 10.35 25 11.41 25 11.41s.7-15.73-8.56-26.07-25-11.41-25-11.41-.7 15.72 8.56 26.07Z" style="fill:#fff"/><path style="fill:none" d="m290.46 149.34-33.52-37.48M268.86 125.18l-8.18.1M274.46 131.31l-1.68-13.32M277.59 134.94l-12.19.02M281.96 139.68l1.37-11.97M285.68 143.84l-8.96.54"/><path d="M313.78 122.76c-9.62 10-9.51 25.75-9.51 25.75S320 148 329.63 138s9.52-25.74 9.52-25.74-15.73.5-25.37 10.5Z" style="fill:#fff"/><path style="fill:none" d="m304.27 148.51 34.88-36.24M326.75 125.15l-.71-8.15M321.06 131.21l13.15-2.68M317.66 134.59l-.93-12.15M313.26 139.31l12.04.46M309.4 143.32l-1.22-8.89"/></g><path d="M144.07 370.18c.08 18.66 14.92 33.71 14.92 33.71s14.72-15.18 14.63-33.84-14.93-33.71-14.93-33.71-14.69 15.19-14.62 33.84Z" style="fill:#92e3a9"/><path style="fill:none;stroke:#fff;stroke-miterlimit:10;stroke-width:.9938565432589912px" d="m158.99 403.89-.3-67.55M158.8 360.35l-8.3-7.18M158.98 371.51l10.18-14.88M158.88 377.95l-12.27-10.84M159.05 386.62l12.03-10.82M159.08 394.1l-9.49-7.44"/><path d="M134 399c7.2 8.06 19.43 8.85 19.43 8.85s.55-12.25-6.63-20.31-19.45-8.85-19.45-8.85-.61 12.25 6.65 20.31Z" style="fill:#92e3a9"/><path style="fill:none;stroke:#fff;stroke-miterlimit:10;stroke-width:.9938565432589912px" d="m153.39 407.89-26.11-29.2M136.57 389.07l-6.37.08M140.94 393.84l-1.32-10.38M143.37 396.67l-9.49.01M146.78 400.36l1.05-9.32M149.67 403.61l-6.98.42"/><path d="M171.56 387.18c-7.5 7.8-7.41 20.05-7.41 20.05s12.25-.37 19.76-8.16 7.35-20.07 7.35-20.07-12.17.39-19.7 8.18Z" style="fill:#92e3a9"/><path style="fill:none;stroke:#fff;stroke-miterlimit:10;stroke-width:.9938565432589912px" d="m164.15 407.23 27.16-28.22M181.66 389.05l-.55-6.35M177.22 393.76l10.25-2.08M174.58 396.39l-.72-9.46M171.15 400.07l9.38.36M168.14 403.2l-.94-6.93"/><g style="opacity:.4000000059604645"><path d="M144.07 370.18c.08 18.66 14.92 33.71 14.92 33.71s14.72-15.18 14.63-33.84-14.93-33.71-14.93-33.71-14.69 15.19-14.62 33.84Z" style="fill:#fff"/><path style="fill:none" d="m158.99 403.89-.3-67.55M158.8 360.35l-8.3-7.18M158.98 371.51l10.18-14.88M158.88 377.95l-12.27-10.84M159.05 386.62l12.03-10.82M159.08 394.1l-9.49-7.44"/><path d="M134 399c7.2 8.06 19.43 8.85 19.43 8.85s.55-12.25-6.63-20.31-19.45-8.85-19.45-8.85-.61 12.25 6.65 20.31Z" style="fill:#fff"/><path style="fill:none" d="m153.39 407.89-26.11-29.2M136.57 389.07l-6.37.08M140.94 393.84l-1.32-10.38M143.37 396.67l-9.49.01M146.78 400.36l1.05-9.32M149.67 403.61l-6.98.42"/><path d="M171.56 387.18c-7.5 7.8-7.41 20.05-7.41 20.05s12.25-.37 19.76-8.16 7.35-20.07 7.35-20.07-12.17.39-19.7 8.18Z" style="fill:#fff"/><path style="fill:none" d="m164.15 407.23 27.16-28.22M181.66 389.05l-.55-6.35M177.22 393.76l10.25-2.08M174.58 396.39l-.72-9.46M171.15 400.07l9.38.36M168.14 403.2l-.94-6.93"/></g></g><g><path style="fill:#fff" d="m132.46 88.19-12.94 11.3 11.8 37.53 27.21-.5 6.05-46.04-19.33-5.25-12.79 2.96z"/><g style="clip-path:url(#a)"><path d="M155 91.47c-2.3-.51-5.88-1.79-5.88-1.79s-14.58-.25-16.9 9.21l-.76 3.84 3.84-1-4.87 7.43c-.52.78-1-6.4-2.05-5.63S125.1 114 125.1 114l1.48 7.94 4.74 15.1 27.2-.5 5.35-40.66c-1.44-.88-6.87-3.97-8.87-4.41Z" style="fill:#92e3a9;opacity:.5;isolation:isolate"/></g><path style="fill:none;stroke:#263238;stroke-linecap:round;stroke-linejoin:round;stroke-width:.8297007805211063px" d="m132.46 88.19-12.94 11.3 11.8 37.53 27.21-.5 6.05-46.04-19.33-5.25-12.79 2.96z"/><path style="fill:#263238;stroke:#263238;stroke-linecap:round;stroke-linejoin:round;stroke-width:.8297007805211063px" d="m134.93 96.05 4.41 5.25-1.13 31.46 4.25 5.73 4.43-8.52-6.23-28.67 3.61-6.07-1.47-5.07-7.87 5.89z"/><path d="M131.32 87a24.59 24.59 0 0 0-1.1 6.71 30 30 0 0 0 1.47 7.74s3.32-4.27 5.53-5.08 6.72-1.31 8.2-.66 5.08 3 5.08 3a26.68 26.68 0 0 0-1.64-10.17c-2-4.91-2.79-6.72-4.11-7.2s-11.14-1.19-13.43 5.66Z" style="fill:#fff;stroke:#263238;stroke-linecap:round;stroke-linejoin:round;stroke-width:.8297007805211063px"/><path d="m119.52 99.49-10.12 25.89s7.86 4.59 8 4.09 8.13-11 8.13-11Z" style="fill:#fff"/><g style="clip-path:url(#b)"><path d="M121.77 113.48s-6.56-2.54-4.86-1a64.9 64.9 0 0 1 4.86 5.36l-6.14 3.08 4.31 5c2.38-3.21 5.59-7.42 5.59-7.42l-4.28-13.57-.25.1Z" style="fill:#92e3a9;opacity:.5;isolation:isolate"/></g><path d="m119.52 99.49-10.12 25.89s7.86 4.59 8 4.09 8.13-11 8.13-11Z" style="fill:none;stroke:#263238;stroke-linecap:round;stroke-linejoin:round;stroke-width:.8297007805211063px"/><path style="fill:#fff" d="m164.58 90.48 24.86 19.91-9.68 5.71-17.14-9.89 1.96-15.73z"/><g style="clip-path:url(#c)"><path d="m181.13 113.22-8.44-6.14s3.84-.77 4.6-1.79-9-.76-9-.76l3.07-4.1-5.88 2v-2.52l-1.62-4-1.28 10.28 17.14 9.89 1.48-.88Z" style="fill:#92e3a9;opacity:.5;isolation:isolate"/></g><path style="fill:none;stroke:#263238;stroke-linecap:round;stroke-linejoin:round;stroke-width:.8297007805211063px" d="m164.58 90.48 24.86 19.91-9.68 5.71-17.14-9.89 1.96-15.73z"/><path d="M131.32 87s2.13 5.74 4.58 8 4.6 1.8 6.23-.33 3.44-9.18 3.94-9.51 2.29-2 2.29-3.6-2.12-.82-2.46-.16l-.33.65-1.63-3.44a33.32 33.32 0 0 1-2.79 5.53c-1.31 1.81-1.64 3.12-2.94 2.14s-2.31-2.46-3.32-.82-3.57 1.54-3.57 1.54Z" style="fill:#fff;stroke:#263238;stroke-linecap:round;stroke-linejoin:round;stroke-width:.8297007805211063px"/><path d="m145.9 81.47-.33.65-1.63-3.44a33.32 33.32 0 0 1-2.79 5.53c-1.31 1.81-1.64 3.12-2.94 2.14s-2.31-2.46-3.32-.82-3.61 1.47-3.61 1.47.5 1.35 1.29 3c4.23.22 11.07-.18 12.64-4.8v1.94a6.76 6.76 0 0 1 .79-1.94c.48-.32 2.29-2 2.29-3.61s-2.05-.78-2.39-.12Z" style="fill:#92e3a9;opacity:.5;isolation:isolate"/><path d="M133.19 88.92s2.29 1 3.11.35c0 0 .17 4.56 1.31 4.15l1.45-1M139.69 89.06s1.2 1 3.07-.65M138.86 88.23s0-2.49 3.94-2.28M136.3 89.27a3.74 3.74 0 0 0-2.63-2.7M136.78 94.24a3.21 3.21 0 0 0 3.74-.83" style="fill:none;stroke:#263238;stroke-linecap:round;stroke-linejoin:round;stroke-width:.5531338536807375px"/><path d="M147.54 81.63s4.53-4.76 2.05-10.23c-1.63-3.59-1.88-3.45-5.82-7.63s-12-1.9-14.7 1-.83 8.08-1.87 8.7-7.26 2.49-7 5 7 3.73 6.22 4.56-6.22.62-3.73 2.7 9.67 3.13 15.57.67 5.53-6.07 5.53-6.07.68 4.06 3.75 1.3Z" style="fill:#263238;stroke:#263238;stroke-linecap:round;stroke-linejoin:round;stroke-width:.8297007805211063px"/><path d="M133.05 85.93s3.5.62 7.6-2.67 1.23-7.74 1.23-7.74M144.54 72.18s2.22 7.17.21 9.13M126.37 83s6.64 1.48 9.95-2.21" style="fill:none;stroke:#fff;stroke-linecap:round;stroke-linejoin:round;stroke-width:.5531338536807375px"/><path d="M111.32 128.84s-5-1.1-4.15-3.87 0-5.81 6.09-5.26 8.57 1.94 8.57 4.71-.83 7.46-4.15 6.08a24.05 24.05 0 0 0-6.36-1.66Z" style="fill:#fff;stroke:#263238;stroke-linecap:round;stroke-linejoin:round;stroke-width:.8297007805211063px"/><path style="fill:none;stroke:#263238;stroke-linecap:round;stroke-linejoin:round;stroke-width:.5531338536807375px" d="m169.58 101.66-6.96 4.55 12.15-2.82M124.76 116.86l-5.51-5.27M122.29 115.91l-3.68-1.95M157.92 109.22l-6.48.21v1.94h6.05"/><path d="M110.25 126.78s-3.06-1.57-1.79-2.56a9.59 9.59 0 0 1 6.64-1.28 17.64 17.64 0 0 1 3.83 1.54s-3.31-2.56-1.28-2.56 3.32 2.56 2.56 5.12-3.84 1.79-3.84 1.79Z" style="fill:#92e3a9;opacity:.5;isolation:isolate"/><path d="M258.29 387.49v-35.88h-57.74v35.88a23.24 23.24 0 0 1-6.75 16.41l-13.16 13.28h97.56l-13.15-13.28a23.2 23.2 0 0 1-6.76-16.41Z" style="fill:#fff;stroke:#263238;stroke-linecap:round;stroke-linejoin:round;stroke-width:1.106267707361475px"/><path d="M200.55 351.61v35.88a23.1 23.1 0 0 1-1.49 8.14h60.72a23.32 23.32 0 0 1-1.49-8.14v-35.88Z" style="fill:#92e3a9;opacity:.4399999976158142;isolation:isolate"/><path style="fill:#263238;stroke:#263238;stroke-miterlimit:10;stroke-width:1.106267707361475px" d="M200.55 353.23h57.74v26.62h-57.74z"/><path style="fill:#fff;stroke:#263238;stroke-linecap:round;stroke-linejoin:round;stroke-width:1.106267707361475px" d="M180.64 417.18h97.55v1.9h-97.55z"/><path d="M89.39 132h280.07A13.53 13.53 0 0 1 383 145.56v209.08a14.69 14.69 0 0 1-14.73 14.64H90.59a14.68 14.68 0 0 1-14.68-14.68V145.51A13.53 13.53 0 0 1 89.39 132Z" style="fill:#263238;stroke:#263238;stroke-miterlimit:10;stroke-width:1.106267707361475px"/><path d="M75.86 341.82H383v12.78a14.68 14.68 0 0 1-14.68 14.68H90.59a14.68 14.68 0 0 1-14.68-14.68v-12.78Z" style="fill:#fff;stroke:#263238;stroke-miterlimit:10;stroke-width:1.106267707361475px"/><path style="fill:#fff;stroke:#263238;stroke-linecap:round;stroke-linejoin:round;stroke-width:.8297007805211063px" d="M120.49 146.98h274.59v183.05H120.49z"/><path style="fill:#92e3a9" d="M120.49 146.98h274.59v59.32H120.49zM148.47 317.7h-11.06V221h11.06Zm21.68-96.76h-11v96.76h11.06Zm21.69 0h-11.07v96.76h11.07Zm21.67 0h-11.06v96.76h11.06Zm21.68 0h-11.06v96.76h11.06Zm21.67 0H245.8v96.76h11.06Zm21.69 0h-11.07v96.76h11.07Zm21.68 0h-11.06v96.76h11.06Zm21.67 0h-11.06v96.76h11.06Zm21.68 0h-11.06v96.76h11.06Z"/><path d="M148.47 317.7h-11.06V221h11.06Zm21.68-96.76h-11v96.76h11.06Zm21.69 0h-11.07v96.76h11.07Zm21.67 0h-11.06v96.76h11.06Zm21.68 0h-11.06v96.76h11.06Zm21.67 0H245.8v96.76h11.06Zm21.69 0h-11.07v96.76h11.07Zm21.68 0h-11.06v96.76h11.06Zm21.67 0h-11.06v96.76h11.06Zm21.68 0h-11.06v96.76h11.06Z" style="fill:#fff;opacity:.4000000059604645;isolation:isolate"/><path d="M206.14 169.19h-72.71a2.43 2.43 0 0 1-2.43-2.43h0a2.43 2.43 0 0 1 2.43-2.42h72.71a2.42 2.42 0 0 1 2.42 2.42h0a2.42 2.42 0 0 1-2.42 2.43Z" style="fill:#fff;stroke:#263238;stroke-linecap:round;stroke-linejoin:round;stroke-width:.8297007805211063px"/><path d="M184.14 169.19h-50.71a2.43 2.43 0 0 1-2.43-2.43h0a2.43 2.43 0 0 1 2.43-2.42h50.71Z" style="fill:#263238;stroke:#263238;stroke-linecap:round;stroke-linejoin:round;stroke-width:1.106267707361475px"/><path d="M206.14 178.7h-72.71a2.42 2.42 0 0 1-2.43-2.42h0a2.42 2.42 0 0 1 2.43-2.42h72.71a2.42 2.42 0 0 1 2.42 2.42h0a2.42 2.42 0 0 1-2.42 2.42Z" style="fill:#fff;stroke:#263238;stroke-linecap:round;stroke-linejoin:round;stroke-width:.8297007805211063px"/><path d="M193.47 178.7h-60a2.42 2.42 0 0 1-2.43-2.42h0a2.42 2.42 0 0 1 2.43-2.42h60Z" style="fill:#263238;stroke:#263238;stroke-linecap:round;stroke-linejoin:round;stroke-width:1.106267707361475px"/><path d="M206.14 188.27h-72.71a2.42 2.42 0 0 1-2.43-2.42h0a2.43 2.43 0 0 1 2.43-2.43h72.71a2.42 2.42 0 0 1 2.42 2.43h0a2.42 2.42 0 0 1-2.42 2.42Z" style="fill:#fff;stroke:#263238;stroke-linecap:round;stroke-linejoin:round;stroke-width:.8297007805211063px"/><path d="M171.17 188.27h-37.74a2.42 2.42 0 0 1-2.43-2.42h0a2.43 2.43 0 0 1 2.43-2.43h37.74Z" style="fill:#263238;stroke:#263238;stroke-linecap:round;stroke-linejoin:round;stroke-width:1.106267707361475px"/><path d="M206.14 197.73h-72.71a2.43 2.43 0 0 1-2.43-2.42h0a2.45 2.45 0 0 1 2.43-2.44h72.71a2.44 2.44 0 0 1 2.42 2.44h0a2.42 2.42 0 0 1-2.42 2.42Z" style="fill:#fff;stroke:#263238;stroke-linecap:round;stroke-linejoin:round;stroke-width:.8297007805211063px"/><path d="M203.52 197.73h-70.09a2.43 2.43 0 0 1-2.43-2.42h0a2.45 2.45 0 0 1 2.43-2.44h70.09Z" style="fill:#263238;stroke:#263238;stroke-linecap:round;stroke-linejoin:round;stroke-width:1.106267707361475px"/><path style="fill:none;stroke:#263238;stroke-linecap:round;stroke-linejoin:round;stroke-width:.8297007805211063px" d="M131.53 317.73h217.89M153.32 317.73v-2.19M175.11 317.73v-2.19M196.9 317.73v-2.19M218.69 317.73v-2.19M240.48 317.73v-2.19M262.27 317.73v-2.19M284.06 317.73v-2.19M305.85 317.73v-2.19M327.64 317.73v-2.19M349.42 317.73v-2.19M131.53 317.73v-96.45M131.53 309.09h5.45M131.53 294.45h5.45M131.53 279.81h5.45M131.53 265.19h5.45M131.53 250.55h5.45M131.53 235.92h5.45M131.53 221.28h5.45"/><path style="fill:#fff;stroke:#263238;stroke-linecap:round;stroke-linejoin:round;stroke-width:.8297007805211063px" d="M353.42 162.53h35.54v36.6h-35.54z"/><path style="fill:#263238;stroke:#263238;stroke-linecap:round;stroke-linejoin:round;stroke-width:1.0078640977828122px" d="M353.42 162.53h35.54v6.28h-35.54z"/><path style="fill:none;stroke:#263238;stroke-linecap:round;stroke-linejoin:round;stroke-width:.8297007805211063px" d="M356.68 173.93v20.79M361.48 173.93v20.79M366.27 173.93v20.79M371.07 173.93v20.79M375.88 173.93v20.79M380.68 173.93v20.79M385.48 173.93v20.79M385.16 176.65h-28.32M385.16 180.49h-28.32M385.16 184.33h-28.32M385.16 188.17h-28.32M385.16 192.01h-28.32"/><path style="fill:none;stroke:#263238;stroke-linecap:round;stroke-linejoin:round;stroke-width:2.21253541472295px" d="m164.21 273.83-21.78 43.9M186.01 303.09l-21.8-29.26M207.8 279.68l-21.79 23.41M229.58 229.93l-21.78 49.75M251.38 244.56l-21.8-14.63M273.16 295.78l-21.78-51.22M294.95 291.39l-21.79 4.39M316.75 285.53l-21.8 5.86M338.53 259.19l-21.78 26.34"/><path d="M142.43 315.49h0a2.28 2.28 0 0 1 2.28 2.28h0a2.29 2.29 0 0 1-2.28 2.29h0a2.3 2.3 0 0 1-2.29-2.29h0a2.29 2.29 0 0 1 2.29-2.28ZM164.21 271.55h0a2.29 2.29 0 0 1 2.29 2.28h0a2.29 2.29 0 0 1-2.29 2.28h0a2.28 2.28 0 0 1-2.28-2.28h0a2.28 2.28 0 0 1 2.28-2.28ZM186 300.81h0a2.28 2.28 0 0 1 2.28 2.28h0a2.29 2.29 0 0 1-2.28 2.29h0a2.29 2.29 0 0 1-2.28-2.29h0a2.28 2.28 0 0 1 2.28-2.28ZM207.86 277.4h0a2.28 2.28 0 0 1 2.27 2.28h0a2.28 2.28 0 0 1-2.27 2.28h0a2.29 2.29 0 0 1-2.29-2.28h0a2.29 2.29 0 0 1 2.29-2.28ZM229.58 227.64h0a2.29 2.29 0 0 1 2.29 2.29h0a2.29 2.29 0 0 1-2.29 2.28h0a2.28 2.28 0 0 1-2.28-2.28h0a2.29 2.29 0 0 1 2.28-2.29ZM251.38 242.28h0a2.29 2.29 0 0 1 2.28 2.28h0a2.29 2.29 0 0 1-2.28 2.29h0a2.29 2.29 0 0 1-2.28-2.29h0a2.28 2.28 0 0 1 2.28-2.28ZM273.13 293.5h0a2.29 2.29 0 0 1 2.29 2.28h0a2.29 2.29 0 0 1-2.29 2.28h0a2.28 2.28 0 0 1-2.28-2.28h0a2.28 2.28 0 0 1 2.28-2.28ZM295 289.11h0a2.28 2.28 0 0 1 2.28 2.28h0a2.29 2.29 0 0 1-2.28 2.29h0a2.29 2.29 0 0 1-2.28-2.29h0a2.28 2.28 0 0 1 2.28-2.28ZM316.75 283.25h0a2.28 2.28 0 0 1 2.27 2.28h0a2.28 2.28 0 0 1-2.27 2.28h0a2.29 2.29 0 0 1-2.29-2.28h0a2.29 2.29 0 0 1 2.29-2.28ZM338.53 256.91h0a2.29 2.29 0 0 1 2.29 2.28h0a2.29 2.29 0 0 1-2.29 2.28h0a2.28 2.28 0 0 1-2.28-2.28h0a2.28 2.28 0 0 1 2.28-2.28ZM170.39 263.66h-11.9a3 3 0 0 1-3-3h0a3 3 0 0 1 2.95-3h11.91a3 3 0 0 1 3 3v0h0a3 3 0 0 1-3 3Z" style="fill:#fff;stroke:#263238;stroke-linecap:round;stroke-linejoin:round;stroke-width:.8297007805211063px"/><path style="fill:none;stroke:#263238;stroke-linecap:round;stroke-linejoin:round;stroke-width:.8297007805211063px" d="M164.21 271.55v-7.6"/><path d="M235.51 219.84h-11.93a3 3 0 0 1-3-3h0a3 3 0 0 1 3-3h12a3 3 0 0 1 3 3h0a3 3 0 0 1-3.07 3Z" style="fill:#fff;stroke:#263238;stroke-linecap:round;stroke-linejoin:round;stroke-width:.8297007805211063px"/><path style="fill:none;stroke:#263238;stroke-linecap:round;stroke-linejoin:round;stroke-width:.8297007805211063px" d="M229.3 227.73v-7.6"/><path d="M344.21 248.66h-11.89a3 3 0 0 1-3-3h0a3 3 0 0 1 3-3h11.89a3 3 0 0 1 3 2.9v.07h0a3 3 0 0 1-3 3Z" style="fill:#fff;stroke:#263238;stroke-linecap:round;stroke-linejoin:round;stroke-width:.8297007805211063px"/><path style="fill:none;stroke:#263238;stroke-linecap:round;stroke-linejoin:round;stroke-width:.8297007805211063px" d="M338.04 256.55v-7.6"/><path d="M238.69 162.53a17.19 17.19 0 1 0 17.19 17.19h0a17.2 17.2 0 0 0-17.19-17.19Zm0 29.32a12.17 12.17 0 1 1 12.17-12.16 12.16 12.16 0 0 1-12.17 12.16Z" style="fill:#fff;stroke:#263238;stroke-linecap:round;stroke-linejoin:round;stroke-width:.8297007805211063px"/><path d="M238.69 162.53a17 17 0 0 0-12.4 5.3l3.64 3.49a12 12 0 0 1 8.76-3.75 12.17 12.17 0 1 1 0 24.34h0v5a17.19 17.19 0 0 0 .87-34.37h-.87Z" style="fill:#263238;stroke:#263238;stroke-linecap:round;stroke-linejoin:round;stroke-width:1.0078640977828122px"/><path style="fill:none;stroke:#263238;stroke-linecap:round;stroke-linejoin:round;stroke-width:.8297007805211063px" d="M233.91 178.81h9.57M233.91 180.63h9.57M132.35 158.98h9.57M132.35 160.79h9.57M144.18 158.98h9.57M144.18 160.79h9.57M155.99 158.98h9.57M155.99 160.79h9.57M132.35 212.2h9.57M132.35 214h9.57M144.18 212.2h9.57M144.18 214h9.57M155.99 212.2h9.57M155.99 214h9.57M355.74 221.35h9.57M367.57 221.35h9.57M379.38 221.35h9.57M355.74 223.57h9.57M367.57 223.57h9.57M379.38 223.57h9.57M355.74 225.81h9.57M367.57 225.81h9.57M379.38 225.81h9.57M355.74 228.03h9.57M367.57 228.03h9.57M379.38 228.03h9.57M355.74 230.26h9.57M367.57 230.26h9.57M379.38 230.26h9.57M355.74 232.5h9.57M367.57 232.5h9.57M379.38 232.5h9.57M355.74 234.72h9.57M367.57 234.72h9.57M379.38 234.72h9.57M355.74 236.96h9.57M367.57 236.96h9.57M379.38 236.96h9.57M355.74 239.18h9.57M367.57 239.18h9.57M379.38 239.18h9.57M355.74 241.42h9.57M367.57 241.42h9.57M379.38 241.42h9.57M355.74 243.65h9.57M367.57 243.65h9.57M379.38 243.65h9.57M355.74 245.87h9.57M367.57 245.87h9.57M379.38 245.87h9.57M355.74 248.11h9.57M367.57 248.11h9.57M379.38 248.11h9.57M355.74 250.33h9.57M367.57 250.33h9.57M379.38 250.33h9.57M355.74 252.57h9.57M367.57 252.57h9.57M379.38 252.57h9.57"/><path d="M279 162.53a17.19 17.19 0 1 0 17.18 17.2h0a17.21 17.21 0 0 0-17.18-17.2Zm0 29.32a12.17 12.17 0 1 1 12.17-12.16A12.16 12.16 0 0 1 279 191.85Z" style="fill:#fff;stroke:#263238;stroke-linecap:round;stroke-linejoin:round;stroke-width:.8297007805211063px"/><path d="m290.83 176.83 4.75-1.78a17.17 17.17 0 0 0-28.94-7.22l3.64 3.49a12.13 12.13 0 0 1 20.55 5.51Z" style="fill:#263238;stroke:#263238;stroke-linecap:round;stroke-linejoin:round;stroke-width:1.0078640977828122px"/><path style="fill:none;stroke:#263238;stroke-linecap:round;stroke-linejoin:round;stroke-width:.8297007805211063px" d="M273.99 178.81h9.57M273.99 180.63h9.57"/><path d="M334.73 169.31a17.18 17.18 0 1 0-3.26 24.08 17.17 17.17 0 0 0 3.26-24.08Zm-23.33 17.77a12.17 12.17 0 1 1 17.06 2.28h0a12.18 12.18 0 0 1-17.06-2.28Z" style="fill:#fff;stroke:#263238;stroke-linecap:round;stroke-linejoin:round;stroke-width:.8297007805211063px"/><path d="m330.49 187.34 4.3 2.71A17.19 17.19 0 0 0 323 162.64l-.58 5a12.17 12.17 0 0 1 8.06 19.69Z" style="fill:#263238;stroke:#263238;stroke-linecap:round;stroke-linejoin:round;stroke-width:1.0078640977828122px"/><path style="fill:none;stroke:#263238;stroke-linecap:round;stroke-linejoin:round;stroke-width:.8297007805211063px" d="M316.04 178.81h9.57M316.04 180.63h9.57"/><path d="M385.62 289.53a17.18 17.18 0 1 0-3.26 24.08 17.18 17.18 0 0 0 3.26-24.08Zm-23.33 17.75a12.17 12.17 0 1 1 17.06 2.3h0a12.17 12.17 0 0 1-17.06-2.3Z" style="fill:#92e3a9;stroke:#263238;stroke-linecap:round;stroke-linejoin:round;stroke-width:1.106267707361475px"/><path d="m381.37 307.56 4.31 2.7a17.18 17.18 0 0 0-11.78-27.4l-.58 5a12.16 12.16 0 0 1 8.05 19.69Z" style="fill:#263238;stroke:#263238;stroke-linecap:round;stroke-linejoin:round;stroke-width:1.0078640977828122px"/><path style="fill:none;stroke:#263238;stroke-linecap:round;stroke-linejoin:round;stroke-width:.8297007805211063px" d="M366.93 299.03h9.57M366.93 300.83h9.57"/><path d="M185.56 107.07s-6.1 2.35-7.86 5.45c-1.11 1.88-.1 5.86 4.27 7.38 1.88.67 4.58-.19 7.62-1.29s.41-12.92-4.03-11.54Z" style="fill:#fff;stroke:#263238;stroke-linecap:round;stroke-linejoin:round;stroke-width:.8297007805211063px"/><path d="M183.52 118.92s-4-.84-4-4.16 5.37-5.38 6.91-5.38 2.3 1.54 2.3 4.1-3 6.29-5.21 5.44Z" style="fill:#92e3a9;opacity:.5;isolation:isolate"/><path d="m109.4 125.38 10.85 35-1.44 7.91 4 5.75 1.44-.72.72-5.4v-4.31l1.8 5.75 1.79-1.11-1.1-8.27-3.6-5.76-5-27.3s-4.86-2.51-9.46-1.54Z" style="fill:#fff;stroke:#263238;stroke-linecap:round;stroke-linejoin:round;stroke-width:.8297007805211063px"/><path style="fill:none;stroke:#263238;stroke-linecap:round;stroke-linejoin:round;stroke-width:.5531338536807375px" d="m122.61 173.49-2.77-6.28M124.17 173.27l-2.29-7.51"/><path d="m189.71 112.05 19.64 24.72 6.13 5.2.6 7-1.58.36-4-3.71-2.74-3.32 2.27 5.53-2.08.31-4.4-7.14.09-4.89-20.12-17.22c-1.66-1.44-1.34-5.73.56-6.83a6.27 6.27 0 0 1 5.63-.01Z" style="fill:#fff;stroke:#263238;stroke-linecap:round;stroke-linejoin:round;stroke-width:.8297007805211063px"/><path style="fill:none;stroke:#263238;stroke-linecap:round;stroke-linejoin:round;stroke-width:.5531338536807375px" d="m215.42 149.24-4.81-8.46M215.28 146.18l-2.19-4.67"/></g><g><path style="fill:#fff;stroke:#263238;stroke-linecap:round;stroke-linejoin:round;stroke-width:.8297007805211063px" d="m410.09 250.87-11.58-16.09-2.76 1.18 7.66 18.44 6.68-3.53z"/><path d="m388.18 231.23 2.66 1.6.73-1-3.43-5.65c-.47-1.52.75-.47.75-.47l2.68 3.71-2.5-6.64c.5-1.4 1.42-.36 1.42-.36l2.77 5.65-.65-6.08c.45-1.25 1.11 0 1.11 0l1.79 6.52c.09-1.17.25-2 .41-3.15.09-.71-.13-1 .48-1.11 1.1-.16.84 1.39.88 2.09.09 1.37.18 2.74.26 4.1l1 4.89-2.81 1.25-4.31-1.41-3.77-2.85c-.58-1.41.53-1.09.53-1.09ZM408.71 251.33s-3.32.19-4.7 1.37-2.21 2.16-3.32 2a1.46 1.46 0 0 0-2 1.37c-.19 1.17.39 2 .39 2.55s-1.08 4.68-1.08 6.44.58 2.21 2.15 2.95a11.44 11.44 0 0 0 3.53 1 38.8 38.8 0 0 1 .2 5.7 5.6 5.6 0 0 1-1 2.74 59.81 59.81 0 0 0 6.28.4 16.85 16.85 0 0 0 4.31-.4s-5.1-5.29-5.1-11.77 1.38-10.59 2.22-12 .29-1.82-1.88-2.35Z" style="fill:#fff;stroke:#263238;stroke-linecap:round;stroke-linejoin:round;stroke-width:.8297007805211063px"/><path d="M400.28 263.12a3.25 3.25 0 0 1-2.28-1.33.31.31 0 1 1 .54-.32 2.54 2.54 0 0 0 1.83 1 .31.31 0 0 1 .26.35.3.3 0 0 1-.33.28ZM402.33 256.35a.47.47 0 0 1-.25-.87l1.28-.79a.46.46 0 0 1 .63.15.48.48 0 0 1-.16.65l-1.27.77a.43.43 0 0 1-.23.09Z" style="fill:#263238"/><path d="M394.39 363.41s.39 9.06 1.3 14.53 9.08 42.35 9.08 44.63S397 431 397 431s-2.21 2.77.53 2.06c2.22-.57 11.61-3 15-5.91 1.48-1.25-1.81-6.37-1.81-6.37s-2.21-34.63-3.62-40.08a93 93 0 0 0-2.72-9.09l4.52-9.61Z" style="fill:#fff;stroke:#263238;stroke-linecap:round;stroke-linejoin:round;stroke-width:.8297007805211063px"/><path d="M407.05 380.66a93 93 0 0 0-2.72-9.09l4.55-9.54-14.49 1.38s.15 3.32.47 7.24a27 27 0 0 0 3.47 1.23 16.63 16.63 0 0 0 3.44.45 38.13 38.13 0 0 1 2.53 11.24c.46 6.42 4.82 38.53 4.82 38.53l.72 6.64a14.11 14.11 0 0 0 2.68-1.63c1.47-1.25-1.82-6.37-1.82-6.37s-2.28-34.63-3.65-40.08Z" style="fill:#92e3a9;opacity:.5;isolation:isolate"/><path d="M410.9 421.13a11.21 11.21 0 0 0-4.15 1.75l-2-.31c0 2.21-7.8 8.39-7.8 8.39s-2.21 2.77.53 2.06c2.21-.57 11.61-3 15-5.91 1.23-.99-.86-4.79-1.58-5.98Z" style="fill:#263238"/><path d="M397.48 433c2.21-.57 11.61-3 15-5.91a1.59 1.59 0 0 0 .33-1.51l-16.59 6.45c-.3.73-.3 1.39 1.26.97Z" style="fill:#fff;stroke:#263238;stroke-linecap:round;stroke-linejoin:round;stroke-width:.8297007805211063px"/><path d="m424.06 357-6.48 11.18a36.36 36.36 0 0 1 5.53 10c1.53 4.42 8 29.28 11.9 40.68a14.2 14.2 0 0 0 2 4 4.69 4.69 0 0 1 1 2.72 2.21 2.21 0 0 1-2 2.39c-2.34.34-15.41 1.49-16.08.94-.43-.36 6.11-3.1 8.85-4.9a7.6 7.6 0 0 0 2.22-2.11s-18.69-40.35-20.67-45.25a29.42 29.42 0 0 1-2.15-12.37 95.24 95.24 0 0 1 1-10.8Z" style="fill:#fff"/><g style="clip-path:url(#d)"><path d="M435 418.9c-3.94-11.4-10.36-36.28-11.89-40.68a36.36 36.36 0 0 0-5.53-10L424 357l-12.41-2.94-2.7.81a84.12 84.12 0 0 0-.79 9.39 37.46 37.46 0 0 0 .15 4.15 17.59 17.59 0 0 0 3.55 1.1 23.14 23.14 0 0 0 3.2.49 27.57 27.57 0 0 1 2.52 6.88c1.11 4.58 15.35 43.56 15.82 44.71s2.29 1.37 0 5.53l-.68 1.2c1.45-.13 2.6-.27 3.16-.34a2.21 2.21 0 0 0 2-2.38 4.56 4.56 0 0 0-1-2.72 14.67 14.67 0 0 1-1.82-3.98Z" style="fill:#92e3a9;opacity:.5;isolation:isolate"/></g><path d="m424.06 357-6.48 11.18a36.36 36.36 0 0 1 5.53 10c1.53 4.42 8 29.28 11.9 40.68a14.2 14.2 0 0 0 2 4 4.69 4.69 0 0 1 1 2.72 2.21 2.21 0 0 1-2 2.39h0c-2.34.34-15.41 1.49-16.08.94-.43-.36 6.11-3.1 8.85-4.9a7.6 7.6 0 0 0 2.22-2.11s-18.69-40.35-20.67-45.25a29.42 29.42 0 0 1-2.15-12.37 95.24 95.24 0 0 1 1-10.8Z" style="fill:none;stroke:#263238;stroke-linecap:round;stroke-linejoin:round;stroke-width:.8297007805211063px"/><path d="M438 425.61a4.69 4.69 0 0 0-1-2.72l-.15-.21a7.26 7.26 0 0 1-4.65 1.32v-1.6c0-1.63-1.23-.5-1.23-.5a7.6 7.6 0 0 1-2.27 2.1c-2.75 1.8-9.29 4.54-8.85 4.9.67.55 13.74-.6 16.08-.94a2.22 2.22 0 0 0 2-2.39Z" style="fill:#263238"/><path d="M438 426.12c-4.43.46-11.69 1-15.49 1.25-1.59.79-2.75 1.41-2.56 1.57.67.55 13.73-.6 16.08-.94a2.11 2.11 0 0 0 1.97-1.88Z" style="fill:#fff;stroke:#263238;stroke-linecap:round;stroke-linejoin:round;stroke-width:.8297007805211063px"/><path d="M401.86 313.73s-3.32 8.41-8 21.43-.35 32.71-.35 32.71 3.43 2.14 12.71-.44 17.08-5.25 17.08-5.25 6-14.52 6.35-23.78-5.85-20.61-5.85-20.61-12.61-15.57-21.94-4.06Z" style="fill:#fff"/><g style="clip-path:url(#e)"><path d="m407 310-2.86 11.45s6.64 12.61 7.34 15.6 2.06 3.21-2.29 8.72-8.95 10.77-7.11 10.08 8.91-8.2 8-5.27-6.18 6.19-8 9.4a36.33 36.33 0 0 0-3.24 8.74 32.08 32.08 0 0 0 7.47-1.26c9.29-2.57 17.08-5.26 17.08-5.26s6-14.51 6.35-23.77-5.85-20.61-5.85-20.61-8.7-10.65-16.89-7.82Z" style="fill:#92e3a9"/></g><path d="M401.86 313.73s-3.32 8.41-8 21.43-.35 32.71-.35 32.71 3.43 2.14 12.71-.44 17.08-5.25 17.08-5.25 6-14.52 6.35-23.78-5.85-20.61-5.85-20.61-12.61-15.57-21.94-4.06Z" style="fill:none;stroke:#263238;stroke-linecap:round;stroke-linejoin:round;stroke-width:.8297007805211063px"/><path d="M409.2 357.22s12.24-8.49 15.71-17.91M404.77 356.28s7.23-3.46 11-7.24M403.51 356.91l-3.14.62" style="fill:none;stroke:#263238;stroke-linecap:round;stroke-linejoin:round;stroke-width:.5531338536807375px"/><path d="M400.45 276.13a14.23 14.23 0 0 1 11.06-1.13c6.64 1.74 3.62 4.2.8 4.56s-11.86-3.43-11.86-3.43Z" style="fill:#fff;stroke:#263238;stroke-linecap:round;stroke-linejoin:round;stroke-width:.8297007805211063px"/><path d="M411.27 276.77a61 61 0 0 0-9.23-1c-3.93 0-11.19.4-14.91-1.37s-8.69-6.38-8.69-6.38l-8.38-25-3.71.26s3.55 21 3.55 24.72a13 13 0 0 0 3.14 8.44c1.77 2.36 14.09 9.32 18.6 11.67l2 1s-3.53 5.3-2.94 7.65 5.29 5.3 6.28 7.06 4.42 11.38 4.42 11.38q4.18-7.56 7.59-15.49c4.63-10.56 8.36-18.41 2.28-22.94Z" style="fill:#fff"/><g style="clip-path:url(#f)"><path d="M408.91 299.75c4.71-10.6 8.44-18.45 2.36-23a62.29 62.29 0 0 0-9.23-1h-2.69c1.39.72 4.9 2.92 4.71 6.64-.22 4.59-4.34 2.75-11.23 2.52s-4.82.23-2.3 2.52l.35.29.76.4 2 1-.2.32c3.38 2 8 4.33 8.14 5.36.23 1.37-3.21 2.74-2.29 5.73.57 1.81 1.46 6.95 3 11.26a68.8 68.8 0 0 0 6.62-12.04Z" style="fill:#92e3a9;opacity:.5;isolation:isolate"/></g><path d="M411.27 276.77a61 61 0 0 0-9.23-1c-3.93 0-11.19.4-14.91-1.37s-8.69-6.38-8.69-6.38l-8.38-25-3.71.26s3.55 21 3.55 24.72a13 13 0 0 0 3.14 8.44c1.77 2.36 14.09 9.32 18.6 11.67l2 1s-3.53 5.3-2.94 7.65 5.29 5.3 6.28 7.06 4.42 11.38 4.42 11.38q4.18-7.56 7.59-15.49c4.63-10.56 8.36-18.41 2.28-22.94Z" style="fill:none;stroke:#263238;stroke-linecap:round;stroke-linejoin:round;stroke-width:.8297007805211063px"/><path d="m372.39 233.41-1 3.19-1.32-.31-1.25-7c-.7-1.56-.93.15-.93.15l.46 4.93-2.73-7.18c-1.41-.79-1.41.69-1.41.69l1.8 6.56-3.84-5.44c-1.25-.7-.94.78-.94.78l3.2 6.55a33 33 0 0 0-2.57-2.21c-.59-.5-.59-.88-1.11-.51-1 .65.3 1.71.77 2.32l2.71 3.5 2.15 3.91 3.71-.25 2.49-4.22 1-5c-.58-1.48-1.19-.46-1.19-.46Z" style="fill:#fff;stroke:#263238;stroke-linecap:round;stroke-linejoin:round;stroke-width:.8297007805211063px"/><path style="fill:none;stroke:#263238;stroke-linecap:round;stroke-linejoin:round;stroke-width:.5531338536807375px" d="m393.6 289.15 5.52 3.97M395.35 290.92l2.51 4.71"/><path d="M412.25 279.53s-6.08-5.54-8.64-12.36.18-15 3.51-18.09 14.74 1 17.7 8.85-2 15.49-3.53 17.27-6.48 4.31-6.48 4.31a52.57 52.57 0 0 1 12.36 17.87c4.52 11 3.32 17.7.59 25.12s-13.54 16.1-13.54 16.1-11.22-13.55-13.74-24.54 8.04-30.21 11.77-34.53Z" style="fill:#263238"/><path d="M412.63 271.12c-9.74-5-7.23-17.59-7.23-17.59s4.43 10.67 10.06 11.3M412 283.69a210 210 0 0 0-4.09 22.95c-1.57 12.89 3.8 28.45 6.3 32M413.62 282.11s5.34 17.3 3.77 28.92a161.13 161.13 0 0 1-3.14 17.59" style="fill:none;stroke:#fff;stroke-linecap:round;stroke-linejoin:round;stroke-width:.5531338536807375px"/><path d="M415.14 283.41s11 18.22 9.42 32.37-5.65 17.91-5.65 17.91" style="fill:none;stroke:#fff;stroke-linecap:round;stroke-linejoin:round;stroke-width:.5531338536807375px"/></g></svg>